<svg width="26" height="23" viewBox="0 0 26 23" fill="none" xmlns="http://www.w3.org/2000/svg">
<path d="M24.7003 0H1.30002C0.582028 0 0 0.586887 0 1.31087V17.0413C0 17.7653 0.582028 18.3522 1.30002 18.3522H13.5466C14.9816 21.6689 18.8115 23.1847 22.1007 21.7377C24.4698 20.6956 26.001 18.3367 26.0003 15.7304V1.31087C26.0003 0.586887 25.4183 0 24.7003 0ZM0.866678 1.31087C0.866678 1.06956 1.0607 0.873913 1.30002 0.873913H24.7003C24.9396 0.873913 25.1336 1.06956 25.1336 1.31087V3.49565H0.866678V1.31087ZM0.866678 4.36956H25.1336V6.11739H0.866678V4.36956ZM13.0301 16.3243C13.0344 16.3745 13.0396 16.4243 13.0452 16.4746C13.0656 16.6555 13.0916 16.8355 13.1271 17.0138C13.1323 17.04 13.138 17.0658 13.1432 17.092C13.1709 17.2231 13.2008 17.3507 13.2363 17.4783H1.30002C1.0607 17.4783 0.866678 17.2826 0.866678 17.0413V6.9913H25.1336V12.4629C25.0591 12.3318 24.9798 12.2064 24.897 12.0823C24.884 12.0626 24.8697 12.0443 24.8563 12.0246C24.7627 11.888 24.6641 11.7552 24.5603 11.6261C24.5317 11.5898 24.5027 11.5536 24.4737 11.5182C24.3554 11.3766 24.2327 11.2385 24.1032 11.1074C24.0897 11.0934 24.075 11.0808 24.0598 11.0672C23.9407 10.9484 23.8159 10.8352 23.6876 10.726C23.6525 10.6958 23.6174 10.6661 23.5814 10.6386C23.4384 10.5215 23.292 10.4092 23.139 10.3047C23.126 10.2956 23.1117 10.2877 23.0987 10.2785C22.9561 10.1828 22.8092 10.0941 22.6597 10.0098C22.6185 9.98664 22.5778 9.96348 22.5362 9.94119C22.372 9.8538 22.2051 9.77035 22.0331 9.6965C22.0227 9.69213 22.0114 9.68863 22.0006 9.68383C21.8377 9.61523 21.6704 9.55274 21.501 9.499C21.4576 9.48414 21.4095 9.46972 21.3636 9.4553C21.182 9.40024 20.9987 9.35043 20.8111 9.31154L20.792 9.30848C20.6105 9.27134 20.425 9.24425 20.2378 9.22109C20.1888 9.21541 20.1399 9.21017 20.0905 9.2058C19.8963 9.18832 19.6996 9.17608 19.5002 9.17608C15.912 9.18018 13.0042 12.1123 13.0002 15.7304C13.0002 15.9297 13.0123 16.1276 13.0301 16.3243ZM19.5002 21.4109C17.1237 21.4068 15.0049 19.9002 14.2031 17.6443C14.1645 17.5381 14.1281 17.4315 14.0965 17.3236C14.0731 17.2432 14.0532 17.161 14.0341 17.0789C14.015 16.9967 13.9908 16.9041 13.9726 16.8167C13.9513 16.707 13.9366 16.5952 13.9219 16.4833C13.9132 16.4169 13.9011 16.3522 13.8946 16.2836C13.8772 16.1001 13.8668 15.9166 13.8668 15.7304C13.8668 12.5932 16.389 10.05 19.5002 10.05C22.6115 10.05 25.1336 12.5932 25.1336 15.7304C25.1336 18.8677 22.6115 21.4109 19.5002 21.4109Z" fill="white"/>
<path d="M2.16746 4.8064H1.30078V5.68031H2.16746V4.8064Z" fill="white"/>
<path d="M3.89988 4.8064H3.0332V5.68031H3.89988V4.8064Z" fill="white"/>
<path d="M5.63328 4.8064H4.7666V5.68031H5.63328V4.8064Z" fill="white"/>
<path d="M7.36668 4.8064H6.5V5.68031H7.36668V4.8064Z" fill="white"/>
<path d="M9.0991 4.8064H8.23242V5.68031H9.0991V4.8064Z" fill="white"/>
<path d="M10.8325 4.8064H9.96582V5.68031H10.8325V4.8064Z" fill="white"/>
<path d="M12.5669 4.8064H11.7002V5.68031H12.5669V4.8064Z" fill="white"/>
<path d="M14.2993 4.8064H13.4326V5.68031H14.2993V4.8064Z" fill="white"/>
<path d="M16.0337 4.8064H15.167V5.68031H16.0337V4.8064Z" fill="white"/>
<path d="M17.7661 4.8064H16.8994V5.68031H17.7661V4.8064Z" fill="white"/>
<path d="M19.4985 4.8064H18.6318V5.68031H19.4985V4.8064Z" fill="white"/>
<path d="M21.2329 4.8064H20.3662V5.68031H21.2329V4.8064Z" fill="white"/>
<path d="M22.9673 4.8064H22.1006V5.68031H22.9673V4.8064Z" fill="white"/>
<path d="M24.7007 4.8064H23.834V5.68031H24.7007V4.8064Z" fill="white"/>
<path d="M4.76677 15.7305H1.7334V16.6044H4.76677V15.7305Z" fill="white"/>
<path d="M12.1329 15.7305H5.63281V16.6044H12.1329V15.7305Z" fill="white"/>
<path d="M7.3668 13.9824H1.7334V14.8563H7.3668V13.9824Z" fill="white"/>
<path d="M12.1347 13.9824H8.66797V14.8563H12.1347V13.9824Z" fill="white"/>
<path d="M20.4536 13.1176C20.2191 13.0705 19.991 13.2238 19.944 13.4602L19.5003 15.6869L19.0583 13.4584C19.0194 13.2203 18.7965 13.059 18.5604 13.0981C18.3242 13.1373 18.1642 13.3621 18.2031 13.6002C18.2047 13.6101 18.2067 13.6199 18.2089 13.6297L19.0756 17.9993C19.1232 18.2358 19.352 18.3885 19.5865 18.3405C19.757 18.3056 19.8903 18.1712 19.9249 17.9993L20.7916 13.6297C20.8374 13.3944 20.6865 13.1659 20.4536 13.1176Z" fill="white"/>
<path d="M22.9813 13.4289C22.9791 13.4387 22.9771 13.4486 22.9755 13.4584L22.5335 15.6869L22.0915 13.4584C22.0526 13.2203 21.8297 13.059 21.5936 13.0982C21.3574 13.1373 21.1974 13.3621 21.2363 13.6002C21.2379 13.6101 21.2399 13.62 21.2421 13.6297L22.1088 17.9993C22.1564 18.2358 22.3852 18.3886 22.6197 18.3406C22.7902 18.3057 22.9235 18.1712 22.9582 17.9993L23.8248 13.6297C23.8798 13.3949 23.7356 13.1595 23.5026 13.1041C23.2697 13.0486 23.0363 13.1941 22.9813 13.4289Z" fill="white"/>
<path d="M16.9003 13.1086H16.0337C15.555 13.1086 15.167 13.4999 15.167 13.9826V17.4782C15.167 17.9609 15.555 18.3521 16.0337 18.3521H16.9003C17.379 18.3521 17.767 17.9609 17.767 17.4782V17.0413C17.767 16.7999 17.573 16.6043 17.3337 16.6043C17.0944 16.6043 16.9003 16.7999 16.9003 17.0413V17.4782H16.0337V13.9826H16.9003V14.4195C16.9003 14.6608 17.0944 14.8565 17.3337 14.8565C17.573 14.8565 17.767 14.6608 17.767 14.4195V13.9826C17.767 13.4999 17.379 13.1086 16.9003 13.1086Z" fill="white"/>
</svg>
