<svg width="609" height="638" viewBox="0 0 609 638" fill="none" xmlns="http://www.w3.org/2000/svg">
<mask id="mask0" mask-type="alpha" maskUnits="userSpaceOnUse" x="0" y="0" width="609" height="638">
<rect width="608.902" height="638" rx="5" fill="#868686"/>
</mask>
<g mask="url(#mask0)">
<path d="M26.9426 511.861C39.6074 512.715 52.2709 513.803 64.856 515.292C75.4266 516.543 85.941 518.284 96.3803 520.234C111.002 522.966 125.54 526.053 140.093 529.061C150.897 531.295 161.679 533.617 172.456 535.952C185.179 538.707 197.984 538.458 210.864 537.007C218.685 536.123 226.537 535.44 234.382 534.715C243.453 533.877 252.528 533.069 261.605 532.291C283.464 530.416 305.365 529.266 327.303 530.756C340.038 531.545 352.698 533.268 365.181 535.912C374.428 537.929 383.697 539.939 393.072 541.403C405.125 543.288 417.158 543.002 428.839 539.239C432.001 538.223 435.165 537.211 438.331 536.203L438.557 535.265C436.954 534.388 435.386 533.458 433.731 532.662C432.996 532.39 432.227 532.222 431.445 532.165C429.672 531.892 427.844 531.165 428.173 529.545C428.368 528.593 430.19 527.595 431.509 527.194C433.548 526.757 435.618 526.487 437.701 526.385C435.984 523.777 434.395 521.391 432.837 518.99C425.181 507.198 417.521 495.408 409.858 483.621C409.396 482.91 408.744 482.342 407.976 481.981C401.323 479.051 395.15 475.134 389.665 470.362C386.605 467.559 383.961 464.333 381.813 460.782C378.342 455.431 374.381 451.019 367.535 448.388C361.152 445.933 355.456 442.109 349.448 438.903C348.65 438.477 347.787 438.144 346.592 437.614C346.843 440.069 345.741 440.69 343.291 440.519C339.584 440.261 336.736 442.308 333.814 443.958C332.8 444.531 331.863 445.215 330.741 445.95C332.442 447.149 334.091 448.223 335.603 449.43C336.1 449.826 336.237 450.565 336.54 451.149C335.872 451.383 335.099 451.937 334.548 451.797C332.4 451.251 330.347 450.435 328.22 449.826C327.023 449.447 325.781 449.228 324.527 449.174C322.258 449.15 319.987 449.349 317.72 449.456C318.445 450.733 319.077 452.061 319.611 453.43C319.835 454.093 319.306 454.953 319.119 455.721C318.435 455.501 317.78 455.201 317.166 454.827C313.046 451.545 308.651 448.47 304.979 444.836C301.816 441.678 298.443 438.738 294.883 436.036C288.868 431.499 286.93 425.396 287.51 418.638C288.213 410.443 291.34 402.817 295.048 395.358C296.535 392.366 296.563 391.022 293.905 388.776C288.058 383.853 281.009 380.571 273.478 379.264C271.699 378.94 269.652 379.903 267.794 379.733C259.106 378.922 250.381 378.21 241.786 376.876C236.796 376.101 231.76 374.767 227.616 371.887C226.572 371.283 225.698 370.422 225.079 369.386C224.479 368.002 223.531 367.939 222.227 368.081C219.017 368.432 215.812 368.82 212.594 369.097C205.88 369.672 199.159 370.167 192.445 370.727C177.782 371.95 163.844 375.149 151.38 382.342C150.299 382.965 149.154 383.508 148.025 384.066C144.848 385.636 141.814 387.121 140.314 390.474C139.061 393.28 136.416 393.216 134.323 390.749C131.726 387.688 132.23 383.851 135.752 380.576C136.695 379.794 137.683 379.069 138.712 378.404L138.45 377.622C136.051 377.083 133.625 376.667 131.184 376.377C128.044 376.142 124.869 376.288 121.711 376.26C118.899 376.231 117.439 375.295 117.39 373.499C117.342 371.73 119.031 370.305 121.621 370.217C124.682 370.107 127.752 370.191 131.607 370.191C130.403 369.126 129.698 368.462 128.945 367.841C125.473 364.975 121.997 362.114 118.515 359.259C118.267 359.052 118.05 358.81 117.872 358.54C117.089 357.368 115.732 355.889 117.431 354.916C118.925 354.302 120.58 354.201 122.138 354.63C123.719 355.011 125.067 356.133 126.88 356.689C126.126 355.776 125.371 354.864 124.617 353.953C122.793 351.734 123.184 350.672 126.087 349.969C126.332 349.908 126.698 349.903 126.8 349.762C128.952 346.739 132.073 347.829 134.813 348.549C141.706 350.365 148.91 351.926 153.975 356.779C156.084 358.806 157.361 358.874 160.303 358.061C170.257 355.315 180.391 353.043 190.524 350.834C203.884 347.923 217.352 345.388 230.684 342.389C235.827 341.078 240.887 339.463 245.838 337.551C246.839 337.049 247.607 336.178 247.981 335.122C248.841 332.895 249.054 330.465 252.515 329.831C253.291 329.689 253.844 328.319 254.364 327.454C255.034 326.264 256.078 325.329 257.335 324.794C258.591 324.259 259.989 324.155 261.311 324.496C264.693 325.137 267.943 326.336 271.335 326.907C273.744 327.311 276.609 327.759 278.719 327.002C287.168 323.969 287.762 327.399 289.45 332.345C289.996 333.941 289.838 335.714 290.302 337.339C292.308 344.386 289.364 350.553 286.173 356.76C284.255 360.497 284.681 364.398 286.127 368.238C286.84 370.132 287.681 372.14 290.377 371.894C292.998 371.66 293.764 369.561 294.368 367.59C295.845 362.785 294.327 358.188 293.313 353.518C291.779 346.437 290.149 339.347 292.678 332.131C294.515 327.282 297.565 322.985 301.537 319.651C301.995 319.24 302.581 318.722 302.629 318.217C302.805 316.403 303.693 315.332 306.528 315.507C303.929 313.088 305.602 311.412 306.879 309.661C310.617 304.536 314.262 299.358 318.098 294.291C319.228 292.8 320.634 291.417 323.254 291.73C323.81 291.796 324.848 290.351 325.212 289.46C325.426 288.935 324.751 288.132 324.477 287.454C323.64 287.687 322.835 288.025 322.081 288.458C320.711 289.491 319.425 290.63 318.234 291.866C315.315 294.733 311.477 296.476 307.397 296.788C303.483 297.258 299.541 297.463 295.599 297.401C289.525 297.323 286.138 294.051 287.029 288.772C287.688 284.816 288.85 280.96 290.486 277.298C293.874 269.791 297.904 262.507 301.376 255.032C305.078 247.057 307.222 238.775 305.288 230.134C304.554 227.832 303.449 225.665 302.017 223.718C301.687 223.187 300.429 222.906 299.569 222.855C297.12 222.707 294.625 222.941 292.211 222.633C291.493 222.445 290.73 222.533 290.074 222.88C289.418 223.228 288.917 223.809 288.669 224.508C286.737 228.242 286.103 232.513 286.867 236.648C288.39 244.188 290.047 251.706 291.597 259.241C291.924 260.744 292.11 262.274 292.151 263.812C292.225 268.786 289.035 270.91 283.823 268.968C270.842 264.132 257.932 259.149 245.093 254.019C239.245 251.675 235.001 247.48 230.777 243.3C221.285 233.907 210.23 226 198.689 218.673C189.783 213.018 180.421 207.892 171.175 202.654C168.741 201.274 165.985 200.329 162.819 198.941C163.43 200.476 163.874 201.501 164.243 202.548C164.68 203.795 164.292 204.699 162.677 204.892C160.266 205.174 157.781 205.842 155.446 205.571C153.115 205.279 150.749 205.5 148.512 206.217C146.275 206.934 144.222 208.131 142.496 209.725C139.902 211.888 137.265 214.085 133.404 214.834C132.068 215.093 131.036 216.901 130.049 218.115C126.885 222.017 123.92 226.052 120.618 229.86C119.292 231.218 117.706 232.294 115.955 233.024C115.047 233.414 114.069 233.615 113.081 233.614C112.094 233.613 111.116 233.41 110.209 233.019C109.302 232.627 108.485 232.055 107.806 231.337C107.128 230.619 106.603 229.77 106.264 228.842C104.817 224.748 104.606 220.319 105.658 216.107C107.321 207.891 111.112 200.392 115.301 192.95C117.594 188.873 118.777 184.314 120.436 179.965C122.981 173.298 125.656 166.678 129.936 160.67C130.895 159.181 132.2 157.947 133.74 157.071C135.279 156.195 137.007 155.703 138.776 155.638C144.075 155.388 146.98 158.737 144.753 162.937C142.926 166.072 140.937 169.109 138.794 172.037C132.391 181.555 125.636 190.905 119.706 200.649C116.712 205.571 115.102 211.151 113.095 216.499C112.605 217.807 113.023 219.374 113.023 221.386C115.705 219.943 117.744 217.541 118.733 214.661C121.077 209.398 122.908 203.954 125.371 198.738C127.2 194.871 128.378 190.667 132.351 187.685C133.948 186.484 134.246 183.994 135.801 182.711C139.317 179.807 143.23 177.263 147.024 174.625C152.079 171.109 152.427 168.446 148.548 163.936C147.814 162.866 147.211 161.713 146.751 160.5C148.263 160.774 150.006 160.717 151.244 161.38C155.502 163.662 159.698 166.068 163.655 168.717C164.761 169.459 164.929 171.249 165.59 172.533C166.116 173.554 166.438 175.012 167.366 175.463C172.55 178.155 177.897 180.523 183.375 182.553C195.227 186.556 207.47 189.701 219.208 193.928C232.031 198.384 243.772 205.487 253.67 214.777C258.944 219.816 265.358 221.063 272.655 220.598C276.589 220.347 280.524 220.088 284.462 219.904C286.777 219.794 288.97 219.976 291.131 218.591C294.258 216.586 297.526 217.565 300.667 219.119C301.926 219.784 303.326 220.138 304.75 220.152C313.328 219.767 321.906 218.753 330.469 218.855C337.446 218.901 344.396 219.726 351.19 221.316C354.862 222.204 356.925 221.464 359.923 220.167C372.095 214.913 380.422 206.426 387.536 196.66C391.697 190.947 396.367 185.477 403.132 181.839C409.514 178.407 413.108 172.833 417.558 167.918C422.682 162.359 429.242 158.325 436.515 156.26C445.187 153.615 454.166 152.525 463.24 151.747C473.709 150.847 484.199 150.063 494.615 148.817C502.312 147.896 509.908 146.312 517.549 145.019C517.892 144.96 518.264 144.749 518.561 144.816C519.507 145.028 520.423 145.34 521.35 145.613C520.684 146.056 520.082 146.762 519.341 146.902C512.005 148.287 504.703 149.957 497.28 150.815C482.688 152.499 467.991 153.498 453.403 155.209C444.226 156.284 435.121 158.104 427.419 163.045C424.953 164.645 422.677 166.519 420.633 168.632C416.352 173.029 412.295 177.594 408.187 182.119C402.294 188.612 402.181 195.852 407.27 202.042C410.91 206.467 415.343 210.394 419.428 214.538C419.997 215.113 420.842 215.585 421.112 216.245C421.32 216.75 420.824 217.476 420.643 218.104C420.135 217.954 419.448 217.942 419.142 217.635C414.184 212.687 408.841 207.968 404.524 202.618C402.141 199.665 401.495 195.637 400.207 192.444C396.683 196.903 396.885 204.426 401.047 210.108C406.555 217.626 413.974 223.607 421.438 229.544C424.107 231.664 426.906 233.614 429.818 235.385C429.551 232.265 432.514 229.642 430.93 226.539C430.918 226.502 430.914 226.462 430.918 226.423C430.923 226.384 430.937 226.347 430.959 226.314C432.47 224.037 433.988 221.764 435.57 219.39C435.881 219.598 436.145 219.868 436.346 220.183C436.547 220.499 436.68 220.853 436.737 221.222C436.794 221.592 436.773 221.969 436.677 222.33C436.58 222.691 436.409 223.028 436.175 223.32C434.429 225.882 435.354 227.412 438.05 228.777C442.539 231.053 446.806 233.699 451.424 235.734C453.52 236.66 456.234 236.511 458.671 236.851L459.28 236.019C457.771 233.866 456.35 231.659 454.731 229.573C452.197 226.302 449.41 223.177 446.99 219.846C446.192 218.749 446.264 217.19 445.81 215.876C445.459 214.875 444.873 213.94 444.462 212.954C444.082 212.193 443.819 211.38 443.681 210.54C443.637 210.071 444.15 209.553 444.419 209.059C444.888 209.426 445.686 209.744 445.762 210.164C446.974 216.885 451.881 221.835 456.179 227.091C457.963 229.273 459.536 231.587 461.495 233.709C462.622 225.237 457.837 218.688 451.993 211.54C453.61 211.657 455.054 211.397 455.451 211.846C460.608 217.674 464.402 224.041 464.89 231.589C464.933 232.272 465.068 233.144 464.674 233.621C462.224 236.589 464.395 239.069 465.511 241.728C466.453 243.76 467.135 245.901 467.542 248.103C468.19 252.618 464.427 255.033 459.384 253.728C451.516 251.698 444.679 247.977 437.962 244.029C436.609 243.234 435.261 242.436 433.915 241.634L433.192 242.169C435.566 244.955 437.939 247.741 440.312 250.527C442.407 252.724 444.348 255.065 446.12 257.531C449.001 262.122 447.877 265.553 442.693 268.203C439.726 269.72 436.407 270.706 433.285 272.003C432.596 272.262 432.002 272.725 431.586 273.332C427.939 279.911 424.643 286.652 420.716 293.096C412.562 306.475 401.145 310.605 384.371 308.012C383.219 307.709 382.042 307.508 380.855 307.414C382.213 308.509 383.584 309.594 384.928 310.703C386.207 311.75 387.248 313.056 387.983 314.536C388.718 316.016 389.13 317.635 389.192 319.286C389.498 323.417 389.179 327.736 390.493 331.62C392.256 336.835 395.163 341.782 397.876 346.719C401.483 353.295 405.432 359.727 409.1 366.277C410.054 368.238 410.884 370.257 411.585 372.322C407.177 371.309 407.027 367.68 405.44 365.035C401.241 358.041 397.212 350.972 393.079 343.941C389.283 337.495 386.433 330.883 386.723 323.408C387.109 313.391 382.28 309.784 371.759 306.734C364.836 304.726 357.629 303.452 350.759 301.343C346.722 299.914 342.83 298.103 339.137 295.935C337.247 294.925 335.936 293.191 336.483 291.063C337.056 288.836 339.123 287.999 341.478 287.583C347.315 286.531 353.335 287.716 358.338 290.903C365.1 294.997 371.626 299.427 378.643 303.15C391.571 310.007 407.997 306.569 415.902 295.236C420.196 289.08 423.362 282.321 427.023 275.828C427.595 274.816 428.1 273.774 428.574 272.865C426.032 272.033 423.557 271.009 421.17 269.802C419.29 268.669 417.717 267.09 416.591 265.206C415.465 263.321 414.819 261.189 414.711 258.996C414.53 257.162 414.775 255.072 417.034 254.272C419.336 253.458 421.219 254.877 422.308 256.397C425.017 260.157 427.521 264.061 429.808 268.093C430.643 269.583 431.5 269.985 432.972 269.4C436.219 268.238 439.383 266.856 442.442 265.262C443.025 264.953 443.53 264.515 443.918 263.982C444.307 263.448 444.569 262.834 444.684 262.184C444.799 261.534 444.765 260.867 444.584 260.232C444.404 259.598 444.081 259.013 443.64 258.522C441.33 255.592 438.744 252.818 436.225 250.012C433.413 246.882 430.653 243.768 430.094 239.591C430.006 238.931 428.993 238.293 428.281 237.782C418.465 230.736 408.965 223.415 401.185 214.548C394.252 206.648 392.525 198.368 398.615 189.454C398.872 189.008 399.092 188.542 399.273 188.06L398.615 187.686C394.925 192.064 391.101 196.358 387.577 200.84C382.573 207.203 377.52 213.485 369.874 217.698C366.055 219.808 362.192 221.844 358.373 223.947C357.803 224.261 357.017 224.684 356.906 225.161C355.818 229.827 351.422 232.015 347.717 234.715C346.899 235.308 346.019 235.811 345.093 236.213C340.003 238.421 337.852 242.217 337.78 246.95C337.716 251.169 338.006 255.388 338.139 259.607C338.328 265.61 338.139 271.57 335.589 277.272C334.773 279.14 333.529 280.79 331.958 282.088C330.386 283.386 328.53 284.295 326.542 284.742C327.056 286.445 328.173 288.205 327.907 289.781C327.628 291.442 326.017 292.925 324.999 294.493C324.432 295.231 323.945 296.026 323.546 296.866C322.257 300.347 321.188 303.898 319.806 307.349C318.25 311.513 318.294 316.107 319.931 320.24C322.876 328.872 325.536 337.604 329.114 346.036C331.287 350.747 334.153 355.107 337.617 358.969C342.395 364.558 347.826 369.729 353.12 374.967C356.344 378.156 359.468 378.497 364.051 376.779C373.245 373.334 378.192 366.78 381.278 358.876C383.802 351.988 384.947 344.67 384.647 337.341C384.633 336.506 385.593 335.66 386.102 334.819C386.69 335.554 387.174 336.366 387.541 337.234C389.004 342.823 390.713 348.387 391.668 354.047C393.167 362.928 394.338 371.874 392.464 380.855C392.401 381.466 392.143 382.041 391.729 382.495C391.117 382.869 390.658 383.447 390.434 384.128C390.21 384.808 390.235 385.546 390.504 386.21C390.644 386.592 390.167 387.148 389.973 387.624L389.056 387.554C388.959 386.5 388.5 385.35 388.821 384.405C391.778 375.78 390.865 367.089 389.548 358.389C389.02 354.977 388.266 351.604 387.291 348.292C383.999 362.794 378.915 375.989 359.844 380.468C364.688 384.534 370.206 387.721 376.148 389.886C376.266 390.652 376.369 391.378 376.5 392.251C371.928 391.171 367.609 389.217 363.779 386.496C361.489 385.009 359.468 383.2 357.161 381.731C355.98 380.993 354.647 380.533 353.262 380.384C344.59 379.563 337.494 375.94 331.1 371.045C323.522 365.241 318.338 357.869 313.235 350.394C311.18 347.386 308.179 344.872 305.586 342.149C305.334 341.947 305.041 341.803 304.727 341.729C304.349 341.735 303.973 341.787 303.607 341.884C303.665 344.027 303.916 346.16 304.356 348.258C308.848 363.386 320.026 374.218 334.336 382.748C342.628 387.69 351.563 391.796 359.972 396.6C364.364 399.248 368.566 402.2 372.547 405.433C372.994 405.88 373.315 406.436 373.48 407.046C373.644 407.657 373.646 408.299 373.485 408.91C373.117 409.419 372.635 409.835 372.077 410.123C371.52 410.412 370.902 410.565 370.274 410.571C365.766 410.296 361.287 409.665 356.879 408.685C349.918 406.969 343.193 404.411 336.851 401.068C324.883 394.817 314.642 385.709 307.038 374.552C303.385 369.147 300.46 363.366 297.557 358.36C297.742 360.832 297.706 363.315 297.449 365.78C297.073 368.061 296.163 370.219 294.794 372.081C291.849 375.948 287.053 374.763 284.845 371.458C283.547 369.474 282.7 367.229 282.367 364.882C282.033 362.534 282.22 360.142 282.914 357.875C283.799 354.976 285.03 352.194 286.578 349.588C288.548 345.98 288.159 342.259 287.732 338.527C287.453 336.089 286.9 333.674 286.419 331.261C285.886 328.583 284.362 327.596 281.714 328.727C276.648 330.893 272.023 329.721 267.135 328.215C264.592 327.431 261.934 325.8 258.917 327.16C256.033 328.466 255.358 330.48 257.089 332.745C258.67 334.754 259.492 337.255 259.411 339.81C259.331 342.365 258.352 344.809 256.647 346.713C252.809 351.294 249.14 355.984 245.44 360.653C243.102 363.541 239.804 365.492 236.147 366.15C233.441 366.721 230.715 367.216 227.769 367.79C228.146 370.179 230.506 370.814 232.402 371.552C238.699 374.014 245.324 375.536 252.064 376.07C258.854 376.603 265.687 376.823 272.506 376.94C278.56 377.045 283.626 379.426 288.488 382.064C291.968 383.953 294.959 386.536 298.368 388.952C300.009 387.449 301.209 389.038 302.207 390.476C305.963 395.867 309.637 401.308 313.31 406.746C318.7 414.73 323.726 423.017 332.234 428.869C335.139 430.861 339.059 431.698 342.402 433.251C347.834 435.774 353.177 438.444 358.546 441.07C362.567 443.034 366.436 445.288 370.617 446.938C375.834 448.837 380.158 452.609 382.746 457.521C387.5 466.706 396.052 472.532 405.151 477.978C405.692 478.204 406.252 478.382 406.824 478.511C406.004 476.481 405.317 474.738 404.598 473.003C404.106 472.055 403.952 470.968 404.162 469.921C404.372 468.874 404.933 467.93 405.752 467.245C405.949 466.936 406.061 466.581 406.078 466.215C406.094 465.849 406.014 465.485 405.846 465.159C404.013 461.804 401.761 458.608 400.164 455.175C397.703 449.878 401.701 445.251 408.265 445.373C409.279 445.458 410.297 445.28 411.223 444.856C417.157 441.223 421.887 444.871 423.813 448.831C425.424 452.367 425.973 456.295 425.392 460.138C425.134 461.673 424.346 463.069 423.165 464.083C421.799 465.255 418.913 464.318 417.796 462.224C416.407 459.627 415.582 456.802 414.41 454.11C413.641 452.34 412.69 450.629 411.575 448.4C409.376 451.169 409.878 453.42 409.984 455.696C410.14 459.029 409.77 462.385 410.018 465.709C410.142 467.372 411.137 468.99 411.744 470.618C412.644 472.677 413.404 474.794 414.02 476.954C414.377 478.355 414.21 479.839 413.551 481.125C413.149 481.626 412.93 482.251 412.933 482.893C412.936 483.536 413.16 484.159 413.566 484.656C422.663 498.438 431.736 512.232 440.786 526.037C442.184 528.166 441.693 528.991 438.966 529.03C436.806 529.061 434.644 529.03 432.483 529.03L432.377 529.6C433.097 529.968 433.862 530.24 434.652 530.41C438.439 530.729 439.907 533.432 441.748 535.683C442.013 536.008 441.473 537.35 440.946 537.576C433.017 541.034 424.631 543.33 416.047 544.394C402.63 545.995 389.679 543.597 376.839 540.675C347.318 533.784 316.951 531.229 286.694 533.092C275.588 533.821 264.474 534.499 253.385 535.409C242.039 536.347 230.73 537.616 219.387 538.597C208.137 539.568 196.915 541.234 185.555 540.218C181.383 539.849 177.236 539.242 173.133 538.399C158.924 535.461 144.773 532.297 130.567 529.365C119.156 527.009 107.739 524.644 96.2304 522.685C83.009 520.438 69.7054 518.538 56.4066 516.662L26.9426 511.861ZM161.366 202.858L162.325 201.452C160.262 200.046 158.133 198.709 156.18 197.196C155.576 196.727 155.456 195.782 155.115 195.056C155.969 194.964 156.977 194.568 157.654 194.83C164.081 197.312 170.812 199.393 176.756 202.586C185.907 207.508 194.668 213.016 203.295 218.623C213.518 225.271 223.492 232.274 231.859 240.727C237.756 246.929 244.974 251.725 252.976 254.759C260.805 257.641 268.484 260.828 276.274 263.789C279.305 264.977 282.404 265.984 285.554 266.805C288.574 267.559 289.816 266.696 289.513 263.983C289.123 260.493 288.275 257.041 287.603 253.576C286.431 247.535 284.742 241.53 284.239 235.448C283.888 231.147 285.128 226.743 285.68 222.196C284.148 222.257 281.987 222.365 279.82 222.423C275.175 222.55 270.528 222.757 265.882 222.732C261.141 222.768 256.576 220.94 253.17 217.643C240.681 205.707 225.151 197.929 208.026 192.412C198.632 189.385 189.016 186.89 179.601 183.909C173.791 182.069 168.168 179.752 163.712 175.822C163.009 175.198 162.087 173.879 162.377 173.414C163.504 171.617 162.315 170.535 161.094 169.648C158.617 167.85 155.938 166.263 153.344 164.59C153.265 165.588 153.389 166.593 153.71 167.542C154.684 172.028 151.639 174.74 147.941 176.974C143.625 179.362 139.703 182.402 136.313 185.985C130.031 193.158 127.122 201.652 123.618 209.951C121.83 213.949 119.697 217.784 117.244 221.412C116.748 222.001 116.133 222.477 115.439 222.811C114.745 223.145 113.989 223.328 113.219 223.348C111.18 223.248 110.579 221.371 110.331 219.743C110.137 218.759 110.14 217.746 110.34 216.763C111.166 213.563 111.585 210.153 113.185 207.259C117.739 199.029 122.585 190.925 127.723 182.948C132.121 176.12 137.098 169.579 141.74 162.872C142.634 161.583 143.469 160.095 141.848 158.7C140.2 157.281 138.449 157.653 136.565 158.423C133.645 159.735 131.351 162.134 130.17 165.11C127.194 171.374 124.662 177.799 121.982 184.169C120.716 187.176 119.872 190.358 118.232 193.192C114.396 199.831 110.849 206.542 108.964 213.83C107.682 218.792 106.738 223.791 109.36 228.667C109.632 229.245 110.028 229.755 110.52 230.16C111.013 230.566 111.589 230.857 112.208 231.012C112.827 231.167 113.473 231.183 114.098 231.058C114.724 230.933 115.314 230.671 115.826 230.29C117.577 229.232 119.145 227.897 120.469 226.338C123.582 222.49 126.446 218.486 129.356 214.519C129.733 214.052 129.921 213.46 129.882 212.861C129.279 209.736 130.663 207.088 132.595 204.696C138.047 198.044 142.591 190.696 146.106 182.846C147.574 179.513 149.367 176.19 153.585 174.743C155.811 173.978 158.142 173.595 160.281 174.968C161.189 175.482 161.857 176.333 162.141 177.337C162.425 178.341 162.301 179.417 161.796 180.33C160.897 182.488 159.764 184.543 158.418 186.455C153.976 192.614 149.692 198.85 142.948 203.492C140.192 205.39 138.19 208.128 135.845 210.485L136.444 211.002C137.858 209.941 139.319 208.925 140.675 207.811C144.924 204.32 149.557 202.012 155.75 203.134C157.529 203.476 159.492 202.988 161.369 202.877L161.366 202.858ZM136.941 389.452C139.238 387.394 141.107 384.881 143.749 383.515C150.835 379.764 158.108 376.377 165.539 373.367C174.374 369.87 184.075 369.112 193.585 368.081C202.279 367.143 211.036 366.625 219.78 366.103C222.54 365.902 225.208 365.019 227.542 363.533C231.938 361.229 236.53 359.322 241.264 357.835C243.666 356.988 246.096 356.429 246.938 353.998C248.543 349.358 247.758 344.677 247.456 339.887C243.045 341.268 239.038 342.786 234.865 343.772C225.958 345.881 216.975 347.756 208.002 349.648C197.344 351.894 186.63 353.946 176.009 356.304C170.466 357.535 165.066 359.251 159.594 360.728C158.866 360.893 158.206 361.279 157.706 361.834C157.206 362.39 156.891 363.086 156.804 363.828C156.129 366.272 155.013 368.572 153.512 370.616C152.926 371.427 150.839 371.407 149.437 371.765C149.058 370.525 148.044 369.1 148.433 368.086C149.259 366.048 150.465 364.186 151.989 362.6C154.559 359.862 154.38 360.404 151.272 357.787C146.902 354.106 141.118 352.703 135.478 351.19C133.751 350.727 131.982 350.39 130.13 349.973L130.555 352.485L126.863 352.704C126.967 353.014 127.129 353.3 127.34 353.549C129.475 355.415 131.726 357.182 133.758 359.131C134.405 359.968 134.914 360.902 135.267 361.899C133.99 362.147 132.428 362.929 131.492 362.544C129.013 361.388 126.611 360.077 124.298 358.619C123 357.884 121.719 357.131 120.43 356.384L119.882 356.989C120.792 357.857 121.645 358.782 122.628 359.583C126.362 362.63 130.182 365.606 133.858 368.707C134.502 369.252 135.106 370.452 134.838 371.034C134.569 371.616 133.197 372.041 132.274 372.089C129.387 372.232 126.484 372.098 123.594 372.212C122.547 372.354 121.516 372.602 120.518 372.952L120.676 373.643C121.692 373.591 122.709 373.597 123.723 373.659C128.888 374.245 134.124 374.597 139.174 375.627C142.065 376.213 142.177 378.355 139.964 380.314C138.899 381.188 137.882 382.117 136.917 383.098C134.636 385.627 134.889 388.15 136.944 389.47L136.941 389.452ZM305.311 222.86C305.324 223.19 305.395 223.514 305.52 223.819C307.966 227.347 308.525 231.229 308.684 235.272C309.059 244.506 305.56 252.881 301.536 261.154C298.327 267.743 294.818 274.23 291.871 280.906C290.683 283.91 289.95 287.074 289.698 290.294C289.418 292.717 291.189 294.407 293.954 294.63C296.861 294.865 299.82 294.564 302.744 294.698C311.61 295.109 316.828 290.206 321.774 284.861C311.64 282.141 308.335 273.316 312.996 266.3C317.99 258.778 324.047 251.776 329.943 244.736C332.323 241.897 335.591 239.637 338.303 236.996C340.431 234.923 342.156 232.52 344.37 230.527C346.857 228.288 349.69 226.343 352.833 223.916C336.806 219.707 321.124 221.27 305.314 222.879L305.311 222.86ZM351.624 377.666C351.408 377.179 351.141 376.717 350.827 376.287C345.372 370.595 339.623 365.098 334.524 359.177C331.126 355.428 328.317 351.185 326.194 346.593C323.04 339.166 321.086 331.358 318.334 323.787C316.059 317.536 314.403 311.4 317.939 305.083C318.383 304.026 318.698 302.92 318.876 301.788L318.25 301.602C316.998 303.089 315.851 304.662 314.816 306.307C310.134 314.963 305.663 323.707 300.945 332.347C299.037 335.666 297.908 339.374 297.641 343.192C297.374 347.011 297.978 350.84 299.405 354.392C303.197 364.694 308.994 374.142 316.46 382.191C323.692 390.298 332.616 396.718 342.602 400.999C348.892 403.474 355.318 405.591 361.848 407.339C364.622 408.13 367.733 408.016 370.692 408.312C368.934 404.669 365.833 402.706 362.634 400.965C353.875 396.197 344.837 391.813 336.218 386.868C323.839 379.765 312.885 371.328 306.207 359.403C303.462 354.503 301.267 349.428 300.808 343.925C300.65 342.018 301.145 339.888 303.529 339.492C305.225 339.336 306.913 339.856 308.227 340.939C311.258 343.785 313.997 346.926 316.405 350.315C321.249 357.484 326.379 364.403 333.726 369.839C338.92 373.942 345.085 376.637 351.624 377.666ZM299.718 400.883C300.219 400.592 300.739 400.337 301.274 400.117C302.194 399.916 303.124 399.747 304.049 399.566C304.15 400.325 304.126 401.095 303.977 401.846C302.562 405.612 300.891 409.309 299.585 413.102C298.219 417.075 297.256 421.131 298.666 425.299C300.51 430.757 305.22 433.953 310.526 436.555C313.674 438.099 317.189 440.218 320.784 438.347C324.417 436.456 327.476 433.716 330.838 431.316C317.313 420.908 310.641 406.325 301.177 393.44L300.516 393.638C300.271 395.857 300.026 398.082 299.717 400.884L299.718 400.883ZM335.344 243.84L334.539 243.433C334.033 244.049 333.528 244.665 333.022 245.281C327.231 252.377 321.256 259.367 315.734 266.619C314.735 267.97 314.098 269.554 313.885 271.221C313.671 272.887 313.888 274.581 314.515 276.14C315.141 277.699 316.157 279.071 317.464 280.126C318.772 281.181 320.328 281.884 321.984 282.167C325.698 282.772 328.873 281.905 331.193 279.12C333.908 275.668 335.35 271.385 335.277 266.993C335.513 259.279 335.344 251.558 335.344 243.841V243.84ZM433.924 229.51C433.526 231.547 433.136 233.525 432.752 235.504C432.596 236.203 432.696 236.935 433.032 237.568C433.369 238.2 433.921 238.691 434.588 238.952C439.252 241.566 443.688 244.524 448.514 246.874C452.406 248.748 456.483 250.213 460.677 251.248C464.086 252.097 465.523 250.848 464.817 247.884C463.984 244.988 462.865 242.182 461.477 239.506C461.283 239.087 459.954 238.74 459.286 238.873C455.332 239.54 451.268 238.849 447.757 236.912C443.237 234.707 438.908 232.199 433.922 229.511L433.924 229.51ZM375.642 304.936C375.623 304.805 375.661 304.597 375.574 304.542C369.691 300.845 363.861 297.079 357.879 293.501C353.166 290.68 348.174 288.344 342.142 289.946C341.087 290.226 339.574 290.872 339.412 291.558C339.433 292.084 339.589 292.596 339.863 293.045C340.137 293.494 340.522 293.867 340.98 294.126C343.946 295.861 347.053 297.343 350.267 298.557C354.522 300.041 358.973 301.117 363.392 302.218C367.439 303.229 371.552 304.038 375.641 304.937L375.642 304.936ZM132.879 208.916L133.533 209.15C135.861 206.807 137.862 204.103 140.583 202.181C146.611 197.923 150.896 192.52 154.894 186.886C156.54 184.688 157.966 182.332 159.152 179.855C160.22 177.458 158.629 176.105 155.777 176.691C154.857 176.811 153.989 177.192 153.278 177.789C151.653 179.483 150.226 181.356 149.024 183.372C145.589 189.772 142.659 196.38 137.882 202.179C136.093 204.344 134.539 206.665 132.878 208.917L132.879 208.916ZM297.218 398.665C296.712 398.782 296.575 398.782 296.55 398.829C296.06 399.767 295.538 400.704 295.109 401.67C292.413 407.758 290.366 413.996 290.361 420.582C290.361 427.076 293.291 432.352 299.353 436.085L302.039 434.738C300.406 433.069 298.873 431.305 297.449 429.455C293.988 424.379 294.815 418.983 296.512 413.661C297.63 410.152 299.125 406.736 300.565 402.984C297.58 402.82 297.183 400.898 297.217 398.666L297.218 398.665ZM341.072 437.44C339.156 436.552 337.412 435.799 335.727 434.951C334.669 434.375 333.462 434.13 332.263 434.245C331.063 434.361 329.926 434.833 328.997 435.6C326.419 437.525 323.971 439.585 321.364 441.664L327.609 444.482L341.072 437.44ZM422.081 462.16C423.216 457.121 422.931 452.558 420.372 448.293C418.806 445.684 416.048 445.258 413.069 446.911C415.999 449.517 417.015 452.799 417.804 456.287C418.286 458.424 419.009 460.822 422.079 462.163L422.081 462.16ZM254.707 334.446C253.514 335.641 252.285 336.833 251.113 338.068C250.746 338.455 250.282 338.966 250.293 339.409C250.397 342.438 250.617 345.464 250.812 348.71C257.997 343.426 257.651 337.134 254.707 334.446ZM427.411 269.395C426.816 267.952 426.13 266.548 425.358 265.192C423.685 262.635 421.883 260.138 420.029 257.677C419.531 257.269 418.915 257.032 418.271 257C418.12 256.977 417.675 257.663 417.612 258.055C416.95 262.125 421.169 268.977 427.411 269.396V269.395ZM407.62 447.957C403.078 448.09 400.898 451.079 402.884 454.741C404.109 456.998 405.437 459.214 406.775 461.421C406.963 461.729 407.478 461.89 407.62 461.976V447.957ZM301.8 323.812C297.96 325.175 292.61 336.107 294.535 340.972C296.867 335.455 299.365 329.554 301.8 323.812ZM303.762 438.101L303.5 438.546L315.37 446.336C314.366 444.274 314.081 441.946 312.659 441.142C310.042 439.653 306.765 439.061 303.762 438.095V438.101ZM410.858 479.13L411.758 478.866L408.297 469.058C406.017 471.103 407.824 476.746 410.859 479.124L410.858 479.13ZM240.988 360.274L230.975 363.939C234.082 364.658 239.38 362.765 240.988 360.274Z" fill="white"/>
<path d="M697.275 525.052C695.718 525.493 694.174 525.967 692.604 526.37C678.307 530.048 663.852 531.313 649.344 527.673C640.238 525.548 632.128 520.386 626.348 513.037C620.606 505.609 615.657 497.708 610.457 489.964C606.151 483.553 601.693 477.23 593.991 473.511C591.063 472.076 587.946 471.065 584.733 470.51C576.653 469.203 568.483 468.999 560.546 471.288C552.801 473.492 545.918 478.015 540.822 484.249C535.356 490.836 530.391 497.739 525.051 504.406C520.504 510.085 515.132 515.07 507.495 517.569C500.537 519.907 493.041 520.123 485.96 518.189L484.798 513.864C478.284 514.075 471.843 515.309 465.712 517.521C463.436 518.258 461.407 519.694 458.6 518.827C457.76 518.567 456.271 519.352 455.352 519.972C453.673 521.105 452.729 521.002 451.87 519.215C448.38 511.967 444.8 504.75 441.248 497.524C439.012 492.974 436.729 488.44 434.561 483.865C434.378 483.124 434.338 482.354 434.444 481.598C435.29 482.074 436.553 482.379 436.913 483.052C439.542 488.03 441.975 493.086 444.495 498.107C447.708 504.504 450.941 510.893 453.871 516.685C456.435 516.685 458.527 516.733 460.613 516.657C461.276 516.562 461.92 516.359 462.518 516.058C469.52 513.456 476.848 511.831 484.293 511.23C486.872 510.974 488.539 511.653 488.71 514.206C488.827 515.946 489.771 516.652 492.031 516.842C506.212 518.033 515.834 511.895 523.405 502.321C528.75 495.561 533.81 488.624 539.348 481.99C544.469 475.796 551.35 471.305 559.081 469.113C567.135 466.785 575.348 466.769 583.74 467.902C592.487 469.088 599.631 472.535 604.929 478.528C608.577 482.932 611.981 487.533 615.125 492.311C619.603 498.654 623.489 505.362 628.467 511.38C638.506 523.509 652.859 527.952 669.503 527.312C678.614 526.96 687.659 526.053 696.004 522.39C696.421 522.289 696.851 522.253 697.278 522.284L697.275 525.052Z" fill="white"/>
<path d="M594.097 95.443C593.98 97.5149 593.699 99.5927 593.787 101.654C593.904 104.406 594.49 107.146 594.549 109.896C594.615 113.252 592.701 114.755 588.806 114.701C587.408 114.681 586.015 114.433 584.613 114.377C580.969 114.234 579.916 115.259 579.476 118.424C578.999 122.925 578.176 127.382 577.015 131.756C575.892 135.486 573.357 138.583 568.086 138.484C568.586 140.277 569.068 141.999 569.62 143.982C570.841 143.982 572.315 143.922 573.771 143.995C576.395 144.125 577.304 145.413 575.99 147.348C575.019 148.623 573.939 149.813 572.763 150.902C571.708 151.986 570.576 153.012 569.51 154.039C570.163 155.985 571.669 156.618 573.745 156.492C575.151 156.407 576.552 156.258 577.947 156.305C578.502 156.324 579.439 156.758 579.48 157.076C579.479 157.372 579.398 157.662 579.247 157.917C579.096 158.172 578.88 158.382 578.621 158.526C573.319 160.283 568.02 162.341 562.154 160.661C558.625 159.649 557.946 158.104 559.341 155.213C561.64 150.455 560.117 144.616 555.136 140.595C555.739 142.629 556.228 144.403 556.794 146.158C558.873 152.626 556.616 157.995 550.526 161.673C544.434 165.282 538.129 168.518 531.645 171.361C523.361 175.073 514.83 178.366 506.366 181.767C500.166 184.258 493.827 186.454 486.924 186.863C485.79 186.77 484.674 186.519 483.609 186.118L483.697 185.249C485.267 184.978 486.833 184.683 488.41 184.439C497.114 183.097 504.984 179.779 512.864 176.508C521.274 173.019 529.702 169.553 537.991 165.851C541.618 164.293 545.07 162.359 548.292 160.079C556.027 154.411 555.464 149.672 552.942 142.833C552.383 141.561 551.929 140.246 551.583 138.901C551.445 138.171 551.7 136.909 552.224 136.674C552.683 136.512 553.173 136.45 553.658 136.494C554.143 136.538 554.614 136.685 555.037 136.927C557.29 138.86 559.304 141.054 561.037 143.464C562.349 145.311 563.108 147.492 563.227 149.754C563.345 152.016 562.817 154.265 561.705 156.238C560.95 157.626 562.03 158.267 563.039 158.432C565.064 158.669 567.101 158.798 569.139 158.819L569.886 157.708C569.329 157.522 568.579 157.479 568.245 157.131C565.89 154.678 565.997 153.546 568.577 151.348C570.206 149.959 571.802 148.541 573.407 147.129C573.447 147.092 573.407 146.99 573.407 146.578C571.276 146.578 569.129 146.649 566.994 146.54C566.174 146.537 565.384 146.238 564.767 145.699C564.517 145.381 565.429 144.486 565.496 143.824C565.624 142.548 565.965 141.083 565.42 140.006C564.482 138.152 562.818 136.587 561.686 134.792C561.262 134.118 561.471 133.14 561.392 132.301C562.285 132.503 563.157 132.789 563.996 133.157C564.644 133.646 565.254 134.181 565.823 134.76C566.288 135.198 566.842 135.531 567.447 135.737C568.052 135.943 568.693 136.018 569.329 135.956C569.965 135.894 570.58 135.697 571.134 135.378C571.687 135.059 572.167 134.626 572.539 134.107C575.077 131.191 575.833 127.741 576.263 124.225C576.6 121.478 576.718 118.71 577.052 115.964C577.334 113.643 579.044 112.205 581.702 112.088C583.889 111.993 586.087 112.112 588.281 112.143C591.305 112.185 592.065 111.642 591.914 108.948C591.768 106.428 591.063 103.928 590.999 101.411C590.917 99.286 591.19 97.1618 591.809 95.1266C592.379 93.3476 594.097 92.314 596.558 92.7101L596.919 92.0737C595.065 90.5355 593.105 89.1297 591.053 87.8666C590.258 87.5082 589.362 87.4445 588.524 87.6869C587.687 87.9294 586.963 88.4621 586.482 89.1897C583.287 93.2539 580.031 97.3087 577.261 101.597C569.908 112.977 560.971 123.055 548.094 130.066C546.643 130.856 546.197 131.732 547.099 133.075C547.616 133.868 548.085 134.691 548.503 135.54C549.077 136.659 549.046 137.621 547.514 138.166C542.358 140.001 537.221 141.888 532.032 143.653C530.975 143.811 529.902 143.824 528.842 143.692C530.475 140.618 533.714 140.832 536.09 139.816C539.127 138.518 542.326 137.51 545.331 136.418C545.395 136.039 545.493 135.862 545.435 135.75C542.751 130.626 543.077 130.453 548.271 127.038C552.901 123.991 557.078 120.41 561.382 116.994C563.654 115.191 565.77 113.238 567.952 111.348C568.146 111.208 568.31 111.03 568.435 110.825C571.877 103.475 577.251 97.0883 581.825 90.303C581.958 90.1061 582.111 89.9198 582.263 89.7323C587.194 83.6911 592.276 83.6313 597.668 89.3666C604.41 96.5387 606.832 104.88 606.699 113.942C606.448 123.391 604.208 132.68 600.123 141.205C598.006 145.802 595.504 150.277 592.936 154.7C592.162 156.005 591.086 157.103 589.798 157.903C588.51 158.702 587.047 159.18 585.535 159.294C582.342 159.663 580.591 158.363 580.262 155.562C579.661 150.523 581.914 146.093 584.212 141.712C587.852 134.777 591.818 127.97 595.335 120.988C598.105 115.492 600.081 109.706 599.155 103.604C598.774 101.094 597.443 98.6821 596.46 96.2598C596.296 95.8555 595.682 95.5918 595.276 95.2625L594.097 95.443ZM602.009 101.694C602.009 104.21 602.167 106.182 601.982 108.129C601.232 115.97 597.633 123.012 593.848 130.007C590.603 136.001 587.255 141.961 584.303 148.064C583.381 150.261 582.923 152.624 582.956 155.006C582.892 157.023 584.338 157.733 586.237 156.624C588.233 155.585 589.975 154.12 591.34 152.332C597.139 143.367 601.135 133.358 603.107 122.864C604.456 115.949 604.716 109.037 602.009 101.694Z" fill="white"/>
<path d="M408.417 399.353C405.086 402.048 402.106 404.604 398.948 406.97C396.654 408.672 393.847 409.54 390.993 409.431C387.337 409.361 384.03 407.705 382.933 405.238C381.511 402.04 382.321 399.132 385.013 396.812C390.9 391.738 399.646 389.948 407.514 395.085C410.289 390.397 411.69 385.578 410.805 380.335C410.419 378.04 410.403 378.042 412.785 376.506C414.206 380.285 414.406 384.414 413.357 388.312C412.514 390.8 411.539 393.242 410.437 395.627C410.203 396.241 410.055 397.233 410.437 397.619C416.96 404.182 420.293 412.118 423.076 420.248C427.017 431.752 429.811 443.559 429.092 455.547C428.623 463.354 431.423 470.078 434.273 477.023C434.653 477.949 435.893 479.1 434.001 479.681C432.314 480.199 432.08 478.885 431.698 477.839C430.021 473.268 428.212 468.725 426.65 464.12C426.171 462.655 426.017 461.104 426.197 459.573C426.986 451.516 426.345 443.383 424.303 435.549C422.454 428.069 420.179 420.701 417.491 413.48C415.583 408.141 412.479 403.308 408.417 399.353ZM405.821 397.315C399.821 392.71 393.974 393.916 388.477 397.336C385.139 399.409 384.293 402.089 385.69 404.438C387.04 406.71 390.173 407.523 394 406.573C394.678 406.446 395.335 406.227 395.953 405.921C399.792 403.752 403.149 400.824 405.82 397.315H405.821Z" fill="white"/>
<path d="M451.304 193.156C450.718 195.535 450.865 198.312 448.009 198.754C447.426 200.469 446.738 202.146 445.947 203.776C445.596 204.417 444.558 204.771 443.838 205.255C443.767 204.374 443.329 203.348 443.696 202.642C444.734 200.624 445.968 198.712 447.379 196.934C448.619 195.598 449.956 194.358 451.381 193.223L451.304 193.156Z" fill="white"/>
<path d="M441.473 206.183C443.582 206.895 443.328 208.121 442.782 209.287C441.829 211.324 440.753 213.316 439.701 215.316C439.202 216.267 438.646 217.191 437.989 218.338C436.392 217.106 436.134 215.87 437.002 214.535C437.97 213.049 439.262 211.715 440.116 210.187C440.696 208.899 441.15 207.558 441.473 206.183Z" fill="white"/>
<path d="M464.108 186.751C461.282 186.794 459.128 185.48 457.382 187.388C457.19 187.43 456.992 187.432 456.8 187.393C456.608 187.354 456.426 187.276 456.266 187.163C455.933 186.761 455.508 185.938 455.692 185.772C456.551 184.996 457.543 183.926 458.6 183.819C460.341 183.757 462.081 183.967 463.757 184.443C464.416 184.592 464.911 185.308 465.481 185.765L464.108 186.751Z" fill="white"/>
<path d="M445.857 206.281C449.256 205.695 450.944 207.558 453.282 209.579C452.096 209.873 451.101 210.399 450.711 210.165C448.972 209.119 446.464 208.703 445.857 206.281Z" fill="white"/>
<path d="M451.379 193.223C449.884 190.322 453.504 189.583 454.003 187.526L455 187.681C455 188.673 455.469 190.078 454.9 190.569C453.827 191.499 454.181 194.188 451.303 193.16L451.379 193.223Z" fill="white"/>
<path d="M467.405 185.421C469.163 185.421 470.935 185.355 472.688 185.468C473.104 185.495 473.618 186.07 473.789 186.487C473.862 186.667 473.23 187.274 472.825 187.363C470.765 187.815 468.74 187.937 467.264 186.283L467.405 185.421Z" fill="white"/>
<path d="M482.109 187.57H476.784L476.94 185.407C478.988 185.407 481.076 184.88 482.109 187.57Z" fill="white"/>
<path d="M522.681 143.955C523.624 143.524 524.599 143.17 525.598 142.894C526.28 142.875 526.96 142.964 527.613 143.158C527.268 143.852 527.123 144.931 526.541 145.162C525.226 145.681 523.626 145.98 522.681 143.955Z" fill="white"/>
<path d="M425.076 223.093C427.43 220.564 428.645 222.205 429.863 222.934C430.08 223.063 429.629 224.046 429.49 224.635L425.076 223.093Z" fill="white"/>
<path d="M386.412 391.412L382.643 392.708L381.985 392.195C382.35 391.481 382.54 390.334 383.121 390.155C384.178 390.03 385.249 390.088 386.286 390.327L386.412 391.412Z" fill="white"/>
<path d="M423.461 218.044L425.732 219.904L425.419 220.643C424.598 220.583 423.794 220.376 423.046 220.033C422.664 219.754 422.861 218.868 422.799 218.255L423.461 218.044Z" fill="white"/>
</g>
</svg>
