<svg width="565" height="463" viewBox="0 0 565 463" fill="none" xmlns="http://www.w3.org/2000/svg">
<path d="M746 404.331H387.213C388.96 406.396 390.703 408.466 393.407 409.873C396.107 411.281 399.764 412.026 402.509 412.684C405.251 413.346 407.081 413.925 407.788 414.956C408.496 415.991 408.08 417.477 404.589 418.429C401.099 419.381 394.531 419.795 385.266 419.381C375.998 418.967 364.029 417.725 354.262 416.115C344.494 414.501 336.931 412.518 331.365 411.897C325.795 411.276 322.222 412.021 321.847 413.925C321.473 415.829 324.297 418.888 328.952 420.705C333.607 422.527 340.089 423.102 350.938 423.475C361.783 423.847 376.996 424.013 386.968 424.22C396.943 424.427 401.677 424.675 405.089 424.385C408.496 424.095 410.576 423.268 409.619 421.989C408.662 420.705 404.673 418.971 399.81 417.191C394.947 415.411 389.214 413.594 385.512 410.825C381.813 408.056 380.149 404.335 378.406 401.562C376.659 398.793 374.833 396.971 372.836 395.278C370.844 393.581 368.68 392.013 366.605 391.847C364.529 391.681 362.532 392.923 360.66 394.119C358.788 395.32 357.045 396.475 353.43 397.137C349.815 397.799 344.328 397.965 335.642 398.089C326.956 398.213 315.071 398.296 304.72 398.751C294.375 399.207 285.564 400.034 280.909 400.651C276.254 401.272 275.754 401.686 278.829 405.034C281.903 408.383 288.555 414.671 297.736 423.93C306.921 433.193 318.64 445.433 325.745 452.316C332.85 459.204 335.346 460.736 337.547 461.501C339.752 462.267 341.661 462.267 344.819 460.674C347.976 459.08 352.382 455.893 353.63 453.641C354.878 451.385 352.964 450.065 345.817 443.736C338.67 437.407 326.286 426.078 319.967 421.078C313.652 416.074 313.402 417.398 306.959 423.599C300.519 429.799 287.885 440.884 281.233 446.795C274.585 452.71 273.92 453.451 275.126 453.864C276.333 454.278 279.407 454.361 283.812 453.326C288.218 452.292 293.954 450.143 297.32 448.364C300.685 446.584 301.684 445.181 309.704 437.614C317.725 430.048 332.767 416.318 339.835 409.497C346.899 402.675 345.988 402.758 338.504 403.048C331.024 403.337 316.976 403.834 310.162 404.372C303.348 404.91 303.764 405.49 305.428 407.828C307.096 410.167 310.012 414.265 310.095 413.768C310.178 413.271 307.429 408.18 305.012 405.635C302.595 403.089 300.519 403.089 296.613 403.296C292.706 403.503 286.97 403.917 281.986 402.592C276.998 401.268 272.759 398.209 270.85 396.392C268.936 394.571 269.352 393.995 273.425 394.119C277.497 394.244 285.227 395.071 294.994 395.071C304.762 395.071 316.564 394.244 326.619 392.551C336.678 390.854 344.989 388.291 350.722 386.474C356.458 384.653 359.616 383.581 361.484 383.664C363.356 383.747 363.934 384.988 364.1 386.226C364.267 387.468 364.017 388.705 363.393 388.498C362.769 388.291 361.771 386.636 360.984 384.612C360.194 382.584 359.612 380.187 358.534 379.4C357.453 378.614 355.876 379.442 351.096 378.738C346.316 378.035 338.337 375.804 331.357 372.947C324.376 370.096 318.39 366.623 314.318 365.464C310.245 364.305 308.082 365.464 305.174 366.292C302.266 367.119 298.609 367.616 294.454 369.516C290.298 371.42 285.643 374.727 281.445 374.313C277.248 373.9 273.508 369.764 271.744 371.975C269.985 374.185 270.201 382.745 270.6 387.211C271 391.677 271.586 392.054 272.206 391.888C272.826 391.723 273.479 391.019 274.24 387.133C275.001 383.246 275.875 376.172 277.04 372.389C278.205 368.605 279.657 368.109 282.881 367.695C286.1 367.281 291.088 366.95 295.535 366.225C299.982 365.501 303.888 364.383 306.547 362.96C309.205 361.532 310.619 359.797 310.474 357.417C310.328 355.041 308.627 352.02 306.838 348.588C305.049 345.157 303.181 341.312 302.744 337.363C302.308 333.414 303.306 329.362 301.933 328.534C300.56 327.706 296.821 330.107 292.582 331.758C288.343 333.414 283.604 334.321 281.113 335.314C278.621 336.307 278.371 337.379 277.997 341.514C277.622 345.65 277.123 352.843 276.832 357.31C276.541 361.776 276.457 363.514 277.539 364.007C278.621 364.504 280.863 363.759 281.695 358.34C282.527 352.922 281.945 342.835 282.569 337.21C283.193 331.585 285.019 330.43 291.463 328.277C297.902 326.125 308.96 322.983 316.481 320.297C324.002 317.611 327.991 315.375 330.446 314.962C332.896 314.548 333.811 315.955 332.193 317.648C330.571 319.345 326.415 321.328 324.88 318.269C323.341 315.21 324.422 307.105 324.713 300.901C325.005 294.7 324.505 290.4 322.966 277.829C321.427 265.258 318.852 244.417 315.819 232.054C312.787 219.69 309.296 215.803 306.26 213.241C303.227 210.679 300.648 209.437 297.865 208.858C295.082 208.278 292.087 208.361 290.676 211.213C289.262 214.065 289.428 219.69 293.21 222.376C296.991 225.062 304.388 224.814 306.842 221.01C309.292 217.206 306.8 209.847 301.563 206.825C296.326 203.808 288.347 205.128 277.959 208.357C267.572 211.581 254.771 216.71 244.172 220.307C233.576 223.903 225.181 225.973 219.611 228.204C214.041 230.435 211.3 232.836 207.393 234.57C203.487 236.309 198.416 237.381 191.061 236.677C183.706 235.973 174.063 233.494 167.915 232.418C161.767 231.342 159.104 231.673 157.815 234.612C156.525 237.546 156.608 243.089 157.856 249.206C159.104 255.324 161.513 262.025 163.963 267.853C166.413 273.686 168.909 278.644 172.732 282.531C176.555 286.418 181.709 289.228 196.253 290.097C210.796 290.967 234.737 289.89 247.949 286.666C261.165 283.442 263.657 278.065 266.112 270.002C268.562 261.939 270.975 251.189 270.309 245.233C269.643 239.276 265.904 238.122 263.537 241.263C261.17 244.405 260.171 251.847 260.462 259.211C260.754 266.57 262.334 273.847 264.743 285.635C267.152 297.42 270.396 313.712 273.429 321.402C276.462 329.093 279.29 328.182 288.846 323.799C298.406 319.415 314.696 311.559 323.757 307.424C332.817 303.289 334.643 302.875 335.226 306.886C335.808 310.897 335.143 319.333 333.853 328.182C332.563 337.032 330.654 346.295 330.903 351.088C331.153 355.886 333.562 356.217 337.135 356.01C340.709 355.803 345.447 355.058 349.103 354.685C352.76 354.313 355.339 354.313 356.957 356.01C358.58 357.707 359.241 361.097 359.553 364.135C359.865 367.173 359.824 369.864 359.075 371.66C358.326 373.461 356.874 374.367 353.796 374.533C350.722 374.698 346.025 374.119 342.639 373.27C339.253 372.422 337.173 371.308 335.7 369.466C334.223 367.625 333.354 365.062 333.27 362.252C333.187 359.441 333.895 356.378 336.012 354.789C338.129 353.195 341.665 353.071 347.231 352.454C352.802 351.833 360.406 350.716 365.91 348.795C371.418 346.871 374.825 344.143 376.88 343.274C378.939 342.404 379.642 343.398 380.079 344.598C380.516 345.799 380.682 347.202 379.725 348.299C378.768 349.395 376.693 350.182 375.861 345.674C375.029 341.167 375.445 331.365 375.424 317.95C375.403 304.531 374.945 287.494 374.217 277.365C373.489 267.233 372.491 264.008 369.25 261.818C366.01 259.629 360.523 258.47 355.909 257.725C351.296 256.98 347.556 256.649 344.398 258.222C341.241 259.794 338.662 263.267 336.253 267.982C333.845 272.696 331.598 278.648 331.848 281.256C332.097 283.86 334.839 283.119 338.042 276.666C341.241 270.217 344.898 258.056 346.562 246.893C348.226 235.729 347.893 225.555 346.312 217.906C344.731 210.257 341.907 205.128 339.04 202.525C336.174 199.921 333.262 199.838 331.353 202.442C329.439 205.045 328.528 210.339 326.49 214.267C324.451 218.196 321.294 220.758 319.884 220.84C318.469 220.923 318.802 218.527 318.885 215.878C318.968 213.233 318.802 210.335 319.551 208.642C320.3 206.945 321.959 206.453 322.271 207.297C322.583 208.146 321.543 210.335 320.379 212.26C319.214 214.185 317.928 215.836 316.764 216.064C315.599 216.292 314.563 215.091 313.877 213.891C313.19 212.69 312.857 211.494 313.481 209.756C314.105 208.017 315.682 205.745 316.784 204.627C317.887 203.51 318.511 203.551 318.324 204.544C318.136 205.538 317.138 207.479 315.665 208.617C314.189 209.756 312.238 210.087 310.761 209.797C309.284 209.507 308.29 208.597 307.312 207.649C306.335 206.697 305.378 205.703 305.856 204.259C306.335 202.81 308.244 200.91 310.178 199.71C312.113 198.51 314.064 198.013 313.981 198.923C313.897 199.834 311.78 202.148 309.367 203.7C306.959 205.252 304.255 206.035 301.513 205.6C298.772 205.165 295.985 203.514 295.132 202.417C294.279 201.32 295.36 200.782 297.79 199.441C300.219 198.096 304.005 195.947 306.497 194.457C308.989 192.967 310.195 192.143 312.545 190.571C314.892 188.998 318.386 186.684 320.399 185.214C322.417 183.745 322.954 183.128 322.579 181.824C322.205 180.521 320.915 178.538 321.477 176.158C322.039 173.782 324.447 171.009 326.527 169.005C328.607 166.998 330.35 165.76 332.555 165.305C334.756 164.85 337.418 165.181 339.868 166.63C342.318 168.078 344.565 170.64 344.96 175.603C345.355 180.566 343.899 187.926 342.073 191.978C340.243 196.03 338.042 196.775 337.48 195.658C336.919 194.54 338 191.564 339.186 187.243C340.372 182.921 341.657 177.255 341.1 172.892C340.538 168.529 338.129 165.471 336.985 163.173C335.841 160.88 335.966 159.349 333.454 154.117C330.941 148.885 325.787 139.952 319.634 131.355C313.486 122.754 306.335 114.484 300.477 109.024C294.616 103.565 290.048 100.92 286.595 99.14C283.147 97.3602 280.817 96.4537 278.949 96.7848C277.077 97.1159 275.667 98.6888 273.629 100.382C271.594 102.079 268.932 103.896 265.941 105.221C262.95 106.545 259.622 107.369 256.922 107.948C254.222 108.528 252.142 108.859 249.692 108.197C247.242 107.534 244.413 105.883 242.379 103.937C240.34 101.992 239.097 99.7609 238.431 97.5712C237.765 95.3775 237.682 93.2293 238.473 93.8087C239.263 94.3882 240.923 97.6954 242.337 100.63C243.752 103.565 244.912 106.131 246.535 108.362C248.157 110.593 250.233 112.497 251.606 114.687C252.979 116.876 253.644 119.36 254.43 121.467C255.221 123.574 256.136 125.312 257.505 127.382C258.877 129.447 260.704 131.848 261.536 134.203C262.368 136.558 262.201 138.876 262.16 140.486C262.118 142.101 262.201 143.007 263.241 142.593C264.281 142.179 266.274 140.441 268.853 139.41C271.428 138.375 274.59 138.044 278.246 138.5C281.903 138.955 286.059 140.197 290.048 145.321C294.038 150.449 297.861 159.465 300.149 165.251C302.432 171.042 303.181 173.604 305.136 176.001C307.092 178.397 310.249 180.632 312.325 181.75C314.405 182.868 315.399 182.868 316.106 181.46C316.814 180.053 317.23 177.242 317.77 175.011C318.311 172.78 318.977 171.125 320.637 169.179C322.301 167.234 324.959 165.003 326.956 163.513C328.952 162.023 330.279 161.282 332.359 160.123C334.439 158.964 337.264 157.395 338.924 156.609C340.588 155.822 341.083 155.822 341 156.484C340.917 157.147 340.251 158.467 338.92 157.478C337.589 156.484 335.596 153.177 332.397 149.746C329.198 146.314 324.792 142.759 320.262 137.92C315.732 133.081 311.077 126.964 306.256 121.752C301.434 116.541 296.446 112.241 292.124 109.43C287.802 106.62 284.145 105.295 281.653 105.047C279.162 104.798 277.83 105.626 277.83 106.992C277.83 108.358 279.161 110.258 279.869 111.624C280.576 112.99 280.659 113.818 279.702 115.055C278.745 116.297 276.753 117.949 275.089 119.604C273.425 121.26 272.098 122.911 270.392 125.064C268.687 127.212 266.611 129.861 265.404 131.02C264.198 132.179 263.865 131.848 264.531 130.192C265.196 128.537 266.856 125.56 267.938 123.454C269.019 121.347 269.519 120.105 268.645 118.408C267.771 116.711 265.529 114.563 264.115 112.659C262.7 110.755 262.122 109.103 262.039 107.613C261.956 106.123 262.372 104.802 264.077 103.395C265.783 101.988 268.774 100.502 271.931 98.4322C275.089 96.3626 278.413 93.7177 280.992 91.1969C283.567 88.6761 285.397 86.2754 288.139 82.8854C290.88 79.4954 294.541 75.112 296.908 71.8048C299.275 68.4976 300.357 66.2624 300.702 63.2574C301.043 60.2482 300.648 56.4649 296.95 51.7918C293.251 47.1187 286.25 41.5597 280.713 38.5298C275.176 35.5 271.104 35.0033 267.447 36.3692C263.79 37.7351 260.55 40.9596 258.678 44.0184C256.806 47.0773 256.311 49.9747 254.522 51.9574C252.733 53.94 249.659 55.0162 247.666 55.3888C245.674 55.7613 244.758 55.4302 244.093 53.195C243.427 50.964 243.011 46.8289 242.058 45.4216C241.102 44.0143 239.608 45.3388 238.735 47.8182C237.861 50.2976 237.611 53.94 237.653 56.5022C237.695 59.0644 238.027 60.5545 238.36 61.5893C238.693 62.6241 239.026 63.2036 237.528 64.9793C236.031 66.7591 232.707 69.7352 231.75 69.9421C230.793 70.1491 232.208 67.587 233.372 64.1928C234.537 60.8028 235.448 56.585 236.156 52.9466C236.863 49.3083 237.362 46.2494 239.188 42.4455C241.019 38.6416 244.176 34.0926 246.21 31.3649C248.249 28.6372 249.16 27.7266 249.784 26.609C250.408 25.4914 250.74 24.171 251.26 22.3911C251.78 20.6113 252.488 18.3803 249.9 15.8057C247.313 13.2311 241.435 10.3171 237.462 7.8336C233.493 5.35423 231.438 3.30532 230.469 3.44192C229.504 3.57437 229.628 5.89231 232.748 9.00912C235.868 12.1301 241.988 16.054 248.045 17.1054C254.102 18.1609 260.1 16.3438 264.344 14.6757C268.591 13.0076 271.083 11.4844 273.491 10.3999C275.9 9.31543 278.23 8.66558 279.831 6.72844C281.433 4.7913 282.302 1.56687 281.038 1.07017C279.769 0.573465 276.362 2.80863 278.97 4.78302C281.578 6.75741 290.202 8.47518 296.945 10.7393C303.689 13.0035 308.552 15.814 312.312 18.9184C316.073 22.0186 318.735 25.4086 320.562 29.8748C322.392 34.341 323.386 39.8834 324.406 42.3338C325.425 44.7842 326.465 44.1426 326.951 42.0564C327.438 39.9703 327.376 36.4313 325.246 37.2301C323.112 38.0249 318.906 43.1533 316.136 48.3439C313.361 53.5344 312.017 58.7829 312.217 64.8841C312.416 70.9852 314.164 77.9308 317.113 84.1727C320.063 90.4146 324.218 95.957 327.214 97.6127C330.205 99.2683 332.035 97.0332 329.955 93.312C327.879 89.5909 321.893 84.3797 316.364 80.3688C310.836 76.3579 305.769 73.5474 300.365 70.7328C294.961 67.9222 289.229 65.1076 282.993 60.8898C276.761 56.6719 270.026 51.0468 264.914 46.0052C259.801 40.9595 256.311 36.4934 255.063 32.2755C253.815 28.0577 254.813 24.0882 257.138 22.1428C259.464 20.1974 263.125 20.2801 265.783 22.9292C268.441 25.5742 270.105 30.7854 272.963 36.7707C275.821 42.7559 279.873 49.5152 284.278 54.1056C288.684 58.696 293.443 61.1133 299.283 62.1481C305.124 63.1829 312.042 62.831 313.09 61.3947C314.139 59.9584 309.317 57.4335 306.938 54.7182C304.558 51.9988 304.621 49.0848 306.189 45.227C307.757 41.3693 310.831 36.5761 310.748 32.3997C310.665 28.2233 307.424 24.6677 302.466 20.9755C297.511 17.2834 290.839 13.4588 285.946 13.7154C281.054 13.972 277.938 18.3058 272.618 22.7306C267.297 27.1553 259.776 31.6671 254.975 36.1581C250.175 40.6491 248.099 45.1153 246.938 48.2859C245.778 51.4607 245.54 53.3399 245.665 56.5684C245.79 59.7929 246.277 64.3625 246.813 68.0919C247.35 71.8214 247.932 74.7188 247.766 77.281C247.6 79.8431 246.684 82.0783 244.567 83.4028C242.45 84.7274 239.122 85.1413 237.046 84.6859C234.97 84.2306 234.138 82.9061 233.93 80.9648C233.722 79.0194 234.138 76.4573 233.88 74.516C233.622 72.5747 232.686 71.2584 230.98 71.9207C229.275 72.583 226.804 75.2196 226.026 78.2371C225.248 81.2504 226.159 84.6404 227.781 88.4071C229.404 92.1696 231.729 96.3047 232.436 96.2219C233.144 96.1391 232.228 91.8385 230.897 87.5793C229.566 83.32 227.823 79.1022 225.993 76.9539C224.162 74.8016 222.253 74.7188 220.381 75.7536C218.509 76.7884 216.683 78.9366 216.599 81.2546C216.516 83.5684 218.18 86.0519 222.586 92.0868C226.991 98.1259 234.138 107.716 238.127 112.721C242.117 117.725 242.949 118.139 243.365 116.939C243.781 115.738 243.781 112.928 243.282 111.645C242.782 110.361 241.784 110.61 241.243 111.851C240.702 113.093 240.619 115.324 248.14 126.736C255.662 138.148 270.792 158.74 279.765 170.744C288.742 182.748 291.567 186.158 293.459 188.65C295.352 191.142 296.305 192.715 296.783 193.394C297.262 194.076 297.262 193.87 297.241 191.924C297.22 189.979 297.178 186.299 295.577 182.516C293.975 178.732 290.818 174.846 287.723 172.859C284.628 170.872 281.595 170.794 279.931 171.1C278.267 171.41 277.976 172.114 278.35 172.962C278.725 173.811 279.765 174.804 279.64 175.835C279.515 176.87 278.226 177.942 277.127 179.142C276.025 180.343 275.114 181.663 274.552 183.319C273.991 184.974 273.783 186.957 273.679 188.302C273.575 189.648 273.575 190.347 273.367 190.864C273.159 191.382 272.743 191.713 272.514 192.81C272.285 193.907 272.243 195.765 272.743 197.545C273.242 199.321 274.282 201.018 275.276 202.094C276.274 203.17 277.231 203.626 277.373 204.143C277.518 204.66 276.853 205.24 275.938 205.426C275.022 205.612 273.862 205.405 272.718 204.453C271.574 203.501 270.455 201.808 269.539 199.573C268.624 197.342 267.917 194.569 267.875 191.903C267.834 189.238 268.458 186.671 269.269 185.989C270.08 185.306 271.079 186.506 271.058 186.92C271.037 187.334 269.997 186.961 266.964 182.64C263.932 178.319 258.902 170.048 255.974 165.52C253.045 160.992 252.213 160.205 251.547 160.35C250.882 160.495 250.383 161.571 249.056 164.858C247.724 168.144 245.565 173.645 244.796 179.084C244.026 184.523 244.65 189.896 245.753 194.445C246.855 198.994 248.432 202.715 250.012 205.484C251.593 208.253 253.17 210.074 253.607 211.109C254.043 212.144 253.336 212.392 249.284 213.568C245.233 214.748 237.836 216.854 233.514 218.076C229.192 219.297 227.944 219.628 226.492 217.413C225.036 215.199 223.376 210.447 222.253 206.043C221.13 201.639 220.547 197.587 220.672 192.313C220.797 187.04 221.629 180.55 222.898 175.835C224.166 171.121 225.868 168.186 227.282 165.686C228.697 163.186 229.816 161.116 232.187 159.46C234.554 157.805 238.173 156.567 241.102 155.553C244.03 154.539 246.277 153.752 247.874 154.104C249.476 154.456 250.428 155.946 250.449 156.253C250.47 156.563 249.555 155.694 249.035 154.742C248.515 153.79 248.39 152.759 248.723 151.642C249.056 150.524 249.846 149.324 250.054 148.376C250.262 147.424 249.888 146.72 248.182 146.617C246.476 146.513 243.444 147.01 241.925 147.506C240.407 148.003 240.407 148.5 241.863 148.583C243.319 148.665 246.227 148.334 248.448 147.134C250.67 145.934 252.209 143.868 252.666 142.026C253.124 140.184 252.5 138.574 250.836 137.767C249.172 136.96 246.472 136.96 244.043 137.477C241.613 137.995 239.45 139.029 240.095 139.646C240.74 140.267 244.188 140.474 247.067 139.816C249.946 139.162 252.259 137.643 252.425 136.091C252.592 134.538 250.616 132.957 248.856 131.835C247.096 130.714 245.561 130.051 243.481 130.403C241.405 130.755 238.785 132.121 237.208 132.324C235.627 132.531 235.091 131.579 236.418 130.668C237.749 129.758 240.948 128.888 242.836 128.085C244.729 127.278 245.307 126.533 244.563 125.627C243.814 124.716 241.738 123.64 239.429 123.536C237.125 123.433 234.587 124.302 232.657 124.84C230.723 125.378 229.395 125.585 227.856 123.888C226.317 122.191 224.574 118.594 218.193 109.521C211.815 100.444 200.8 85.8905 195.317 78.1378C189.83 70.3851 189.871 69.433 191.119 67.678C192.367 65.9189 194.818 63.3567 196.419 61.4734C198.021 59.59 198.765 58.3938 197.709 56.8209C196.648 55.248 193.782 53.3067 192.263 51.8373C190.745 50.3679 190.579 49.3786 189.668 47.9299C188.752 46.4812 187.093 44.5813 186.281 43.2361C185.47 41.8909 185.512 41.1044 185.99 41.0009C186.469 40.8975 187.384 41.4769 187.259 42.0357C187.134 42.5945 185.969 43.1326 184.206 41.7046C182.438 40.2766 180.07 36.8866 178.698 34.6349C177.325 32.3831 176.95 31.2656 177.075 30.7275C177.2 30.1894 177.824 30.2308 178.115 30.7482C178.406 31.2656 178.365 32.259 176.555 30.8516C174.746 29.4443 171.172 25.6404 169.554 23.2645C167.932 20.8886 168.264 19.9366 168.597 19.9366C168.93 19.9366 169.263 20.8886 168.264 20.93C167.266 20.9714 164.941 20.1022 163.089 18.5955C161.238 17.0847 159.87 14.9365 157.353 13.9017C154.84 12.8669 151.179 12.9496 148.521 13.4257C145.863 13.9017 144.199 14.7709 143.242 16.0913C142.285 17.4158 142.036 19.1915 141.536 20.4747C141.037 21.7578 140.288 22.5401 139.935 23.4715C139.581 24.4028 139.623 25.479 140.122 27.027C140.621 28.5792 141.578 30.6033 142.988 32.4659C144.403 34.3286 146.27 36.0215 148.309 37.284C150.347 38.5464 152.548 39.3701 153.546 40.3428C154.545 41.3155 154.337 42.429 153.463 43.0912C152.59 43.7535 151.055 43.9605 150.514 43.4431C149.973 42.9257 150.431 41.6839 151.491 41.3155C152.552 40.943 154.212 41.4397 156.126 43.1781C158.039 44.9166 160.198 47.8927 161.363 49.7926C162.528 51.6966 162.694 52.5203 162.278 53.4516C161.862 54.3829 160.864 55.4177 159.641 55.8689C158.414 56.3242 156.962 56.2 156.733 55.248C156.504 54.296 157.503 52.5203 158.809 52.0029C160.119 51.4855 161.737 52.2306 163.88 54.0725C166.018 55.9144 168.68 58.8491 170.007 60.7904C171.339 62.7358 171.339 63.6837 170.694 64.5529C170.049 65.4222 168.759 66.2086 167.328 66.1879C165.893 66.1672 164.317 65.3394 164.109 64.019C163.901 62.6944 165.065 60.8773 166.725 60.3185C168.389 59.7597 170.548 60.4634 172.067 61.3533C173.585 62.2433 174.454 63.3195 175.453 63.7913C176.451 64.2673 177.574 64.1432 177.529 62.86C177.487 61.5769 176.281 59.1389 173.435 56.1421C170.59 53.1453 166.101 49.5898 162.59 46.5268C159.079 43.4679 156.542 40.9016 154.486 38.6085C152.431 36.3154 150.851 34.2872 151.287 34.2458C151.724 34.2044 154.175 36.1498 158.497 39.933C162.819 43.7163 169.009 49.3414 172.628 52.8556C176.243 56.3698 177.283 57.7771 178.656 59.3458C180.029 60.9187 181.73 62.653 183.082 63.8327C184.434 65.0124 185.433 65.6333 186.781 65.9602C188.133 66.2914 189.834 66.3328 191.498 65.1117C193.162 63.8907 194.78 61.4113 195.695 60.0454C196.611 58.6794 196.819 58.4311 197.526 58.638C198.233 58.845 199.439 59.5073 200.642 61.1588C201.848 62.8145 203.05 65.4594 205.338 68.808C207.622 72.1566 210.992 76.2089 212.381 78.3406C213.775 80.4681 213.192 80.6751 209.66 82.2273C206.129 83.7795 199.643 86.6728 194.764 89.504C189.88 92.3352 186.598 95.1084 181.069 99.6781C175.54 104.248 167.769 110.614 161.97 119.091C156.171 127.568 152.348 138.152 149.274 144.853C146.2 151.55 143.87 154.365 141.337 157.59C138.803 160.814 136.058 164.452 134.107 169.788C132.156 175.123 130.991 182.151 130.325 187.156C129.66 192.16 129.493 195.136 129.951 195.716C130.408 196.295 131.49 194.474 133.275 192.201C135.064 189.929 137.555 187.197 140.13 185.008C142.705 182.818 145.368 181.162 147.901 179.097C150.435 177.027 152.847 174.548 155.173 172.524C157.498 170.496 159.745 168.927 161.571 167.644C163.401 166.36 164.812 165.371 164.354 163.923C163.896 162.474 161.571 160.574 159.949 160.16C158.326 159.746 157.415 160.822 157.748 162.557C158.081 164.295 159.662 166.692 163.942 166.153C168.223 165.615 175.203 162.143 181.106 159.084C187.009 156.025 191.827 153.376 195.691 150.731C199.556 148.086 202.464 145.437 205.292 142.709C208.117 139.981 210.863 137.167 214.187 134.687C217.51 132.208 221.417 130.056 223.33 128.979C225.244 127.903 225.161 127.903 223.871 129.145C222.581 130.387 220.09 132.866 216.849 135.594C213.608 138.322 209.619 141.302 205.754 144.609C201.89 147.916 198.15 151.555 193.204 154.99C188.257 158.421 182.109 161.646 176.663 163.923C171.218 166.195 166.48 167.519 162.99 168.14C159.499 168.761 157.253 168.678 155.551 168.968C153.846 169.258 152.685 169.92 150.023 172.11C147.365 174.299 143.209 178.025 140.006 181.001C136.807 183.977 134.56 186.212 133.275 187.988C131.985 189.768 131.652 191.088 131.902 193.571C132.152 196.051 132.984 199.689 133.857 202.131C134.731 204.569 135.646 205.811 137.347 206.598C139.053 207.384 141.545 207.715 145.659 206.846C149.773 205.977 155.51 203.911 163.364 198.99C171.218 194.068 181.194 186.295 187.633 181.456C194.073 176.617 196.985 174.717 200.267 173.103C203.549 171.489 207.206 170.169 210.946 169.01C214.686 167.851 218.509 166.857 221.246 166.331C223.983 165.806 225.631 165.744 226.8 165.144C227.973 164.543 228.663 163.405 229.046 164.018C229.429 164.626 229.495 166.985 228.572 170.81C227.648 174.635 225.739 179.929 224.907 184.809C224.075 189.689 224.324 194.155 224.77 199.52C225.215 204.884 225.851 211.151 226.712 214.545C227.573 217.939 228.659 218.465 227.923 219.632C227.187 220.799 224.636 222.612 222.153 223.763C219.674 224.918 217.261 225.414 214.062 226.611C210.863 227.811 206.873 229.711 202.634 230.746C198.395 231.78 193.907 231.946 188.752 231.573C183.598 231.201 177.782 230.29 173.211 229.177C168.639 228.059 165.315 226.739 163.027 225.828C160.743 224.918 159.495 224.421 158.871 223.39C158.247 222.355 158.247 220.787 158.746 218.386C159.246 215.989 160.244 212.761 160.743 210.406C161.242 208.05 161.242 206.56 161.866 206.891C162.49 207.223 163.738 209.371 163.942 212.724C164.15 216.072 163.318 220.621 161.076 224.301C158.834 227.981 155.173 230.791 153.222 234.682C151.267 238.569 151.017 243.532 153.471 251.595C155.922 259.658 161.076 270.821 166.48 276.446C171.884 282.072 177.533 282.154 186.635 282.196C195.737 282.237 208.288 282.237 218.509 282.237C228.734 282.237 236.63 282.237 242.279 282.279C247.932 282.32 251.339 282.403 253.79 283.396C256.24 284.389 257.738 286.289 257.571 288.318C257.405 290.342 255.574 292.494 250.424 294.108C245.27 295.723 236.792 296.795 226.779 297.333C216.762 297.871 205.209 297.871 195.612 297.664C186.011 297.457 178.365 297.043 173.543 296.422C168.722 295.801 166.729 294.973 165.273 293.777C163.817 292.577 162.906 291.008 161.658 286.707C160.41 282.407 158.834 275.378 157.378 270.954C155.922 266.529 154.595 264.712 153.347 265.287C152.099 265.867 150.938 268.843 151.475 273.723C152.015 278.603 154.258 285.383 159.537 294.729C164.816 304.075 173.127 315.984 180.982 328.265C188.836 340.546 196.232 353.199 208.616 373.254C221.001 393.308 238.373 420.763 248.095 434.907C257.821 449.051 259.897 449.874 261.436 449.999C262.975 450.123 263.969 449.543 263.308 447.354C262.642 445.164 260.317 441.356 252.92 429.406C245.524 417.456 233.056 397.36 227.444 386.607C221.833 375.857 223.081 374.45 225.864 368.618C228.647 362.786 232.969 352.533 236.251 347.984C239.533 343.435 241.78 344.594 246.93 352.74C252.084 360.886 260.146 376.019 264.577 382.927C269.007 389.831 269.806 388.507 269.639 385.986C269.473 383.465 268.341 379.744 267.692 377.716C267.043 375.692 266.877 375.361 262.222 368.866C257.567 362.376 248.423 349.722 243.856 343.394C239.284 337.069 239.284 337.069 241.692 331.113C244.101 325.156 248.922 313.248 251.044 306.675C253.166 300.102 252.583 298.86 251.46 298.819C250.337 298.777 248.677 299.936 245.973 305.475C243.273 311.017 239.533 320.939 237.453 325.446C235.378 329.954 234.962 329.043 233.173 326.853C231.384 324.664 228.227 321.187 226.816 318.914C225.402 316.642 225.735 315.566 227.482 313.455C229.229 311.348 232.387 308.202 234.379 305.847C236.376 303.492 237.204 301.919 236.621 300.884C236.039 299.849 234.046 299.353 231.842 300.015C229.641 300.677 227.228 302.494 225.235 304.564C223.239 306.629 221.662 308.947 220.289 309.32C218.916 309.692 217.756 308.119 216.271 305.872C214.79 303.624 212.988 300.698 211.745 299.622C210.497 298.546 209.806 299.324 210.455 301.281C211.104 303.239 213.101 306.381 214.761 308.947C216.425 311.509 217.752 313.496 217.419 316.555C217.086 319.614 215.093 323.749 212.431 328.919C209.773 334.089 206.445 340.289 204.702 343.514C202.955 346.738 202.788 346.986 197.597 339.089C192.401 331.191 182.18 315.148 176.609 306.547C171.039 297.945 170.124 296.786 172.204 295.793C174.28 294.8 179.355 293.976 188.499 293.852C197.642 293.727 210.859 294.307 219.503 294.555C228.148 294.804 232.22 294.721 234.313 295.718C236.405 296.716 236.513 298.798 234.437 301.65C232.362 304.502 228.093 308.128 225.543 311.348C222.993 314.568 222.165 317.379 221.957 319.237C221.749 321.1 222.165 322.006 223.788 324.449C225.41 326.887 228.235 330.856 229.982 333.174C231.729 335.488 232.391 336.15 231.771 339.172C231.147 342.189 229.237 347.566 226.908 353.108C224.582 358.651 221.837 364.354 219.969 368.2C218.097 372.045 217.103 374.032 213.321 381.888C209.54 389.744 202.975 403.474 199.772 410.875C196.573 418.276 196.74 419.352 198.025 419.766C199.315 420.18 201.723 419.931 205.629 413.11C209.536 406.289 214.94 392.89 217.723 386.027C220.506 379.165 220.672 378.833 217.972 374.698C215.272 370.563 209.702 362.624 207.085 358.241C204.469 353.858 204.802 353.03 207.293 347.818C209.785 342.607 214.44 333.017 216.936 328.426C219.428 323.836 219.761 324.25 219.054 326.274C218.347 328.302 216.604 331.941 209.286 347.446C201.973 362.951 189.089 390.328 180.403 407.982C171.717 425.639 167.229 433.578 164.529 438.045C161.829 442.511 160.914 443.504 159.749 443.132C158.584 442.759 157.174 441.021 158.584 435.689C159.998 430.354 164.238 421.422 170.76 408.234C177.283 395.042 186.094 377.592 190.666 368.663C195.238 359.731 195.571 359.317 195.155 360.931C194.739 362.546 193.574 366.184 190.125 373.75C186.677 381.317 180.94 392.811 175.207 404.31C163.335 404.289 5.9808 404.277 -5.99998 404.273" stroke="white" stroke-miterlimit="2.6131"/>
</svg>
