<svg width="18" height="18" viewBox="0 0 18 18" fill="none" xmlns="http://www.w3.org/2000/svg">
<g opacity="0.5">
<mask id="mask0" mask-type="alpha" maskUnits="userSpaceOnUse" x="0" y="0" width="18" height="18">
<rect width="18" height="18" fill="#C4C4C4"/>
</mask>
<g mask="url(#mask0)">
<path d="M17.0054 4.00408L16.5956 2.81845C16.4396 2.36689 16.0033 2.06347 15.5103 2.06347H12.0663V0.981168C12.0663 0.440221 11.6107 0 11.0504 0H7.89655C7.33641 0 6.88062 0.440221 6.88062 0.981168V2.06347H3.43679C2.94362 2.06347 2.50737 2.36689 2.35133 2.81845L1.94156 4.00408C1.84825 4.27401 1.89554 4.57291 2.06786 4.80375C2.24018 5.03459 2.51898 5.17249 2.81378 5.17249H3.2421L4.18482 16.4248C4.25491 17.2598 4.98893 17.9139 5.85619 17.9139H13.2821C14.1492 17.9139 14.8833 17.2598 14.9533 16.4247L15.896 5.17249H16.1332C16.428 5.17249 16.7068 5.03459 16.8791 4.80388C17.0514 4.57305 17.0987 4.27401 17.0054 4.00408ZM7.96806 1.04964H10.9789V2.06347H7.96806V1.04964ZM13.8694 16.3401C13.8447 16.6341 13.5868 16.8642 13.2821 16.8642H5.85619C5.55148 16.8642 5.2935 16.6341 5.26886 16.3401L4.33307 5.17249H14.805L13.8694 16.3401ZM3.04698 4.12285L3.38298 3.15056C3.39063 3.12815 3.41229 3.11312 3.43679 3.11312H15.5103C15.5348 3.11312 15.5563 3.12815 15.5641 3.15056L15.9001 4.12285H3.04698Z" fill="white"/>
<path d="M12.1339 16.3851C12.1434 16.3856 12.1528 16.3858 12.1624 16.3858C12.4471 16.3858 12.6851 16.1645 12.7 15.8791L13.206 6.24358C13.2214 5.94876 12.993 5.69723 12.6959 5.68192C12.398 5.66619 12.1452 5.89309 12.1297 6.18791L11.6238 15.8234C11.6083 16.1182 11.8367 16.3698 12.1339 16.3851Z" fill="white"/>
<path d="M6.26397 15.8804C6.27945 16.1653 6.51362 16.3858 6.79354 16.3858C6.80322 16.3858 6.81317 16.3855 6.82298 16.385C7.11562 16.3689 7.33997 16.117 7.32408 15.8222L6.80197 6.18656C6.78608 5.89174 6.53588 5.66582 6.2431 5.68197C5.95046 5.69797 5.72611 5.94992 5.74201 6.24475L6.26397 15.8804Z" fill="white"/>
<path d="M9.4738 16.3858C9.7862 16.3858 10.0394 16.1465 10.0394 15.8513V6.21567C10.0394 5.92043 9.7862 5.68115 9.4738 5.68115C9.16139 5.68115 8.9082 5.92043 8.9082 6.21567V15.8513C8.9082 16.1465 9.16139 16.3858 9.4738 16.3858Z" fill="white"/>
</g>
</g>
</svg>
