<svg width="17" height="17" viewBox="0 0 17 17" fill="none" xmlns="http://www.w3.org/2000/svg">
<g opacity="0.5">
<path fill-rule="evenodd" clip-rule="evenodd" d="M10.5924 1.10037C12.0557 -0.366789 14.4355 -0.366789 15.8989 1.10037C16.6088 1.80678 17 2.74866 17 3.75212C17 4.75558 16.6088 5.69746 15.8989 6.40749L6.16968 16.1342C6.07913 16.2284 5.95235 16.2791 5.82558 16.2791C5.6988 16.2791 5.57202 16.2248 5.48147 16.1342L1.56227 12.2145L1.05879 15.9386L3.63778 15.5908C3.90582 15.5546 4.15213 15.743 4.18835 16.011C4.22457 16.2791 4.03622 16.5254 3.76818 16.5617L0.551683 16.9964C0.52995 17 0.508217 17 0.486484 17C0.359707 17 0.232931 16.9457 0.142377 16.8551C0.0373334 16.75 -0.0169993 16.5979 0.00473378 16.4457L0.725547 11.106C0.740036 11.001 0.787125 10.9031 0.86319 10.8271L10.5924 1.10037ZM12.4143 3.92942L10.7807 2.29563L1.90272 11.1746L3.53633 12.8084L12.4143 3.92942ZM5.82894 15.0983L4.23155 13.5007L13.1095 4.62169L14.7069 6.21926L5.82894 15.0983ZM11.4809 1.6116L15.3892 5.5204C15.7985 5.0241 16.0231 4.40826 16.0231 3.75256C16.0231 3.00993 15.737 2.31077 15.2117 1.78911C14.6865 1.26745 13.9911 0.977646 13.2485 0.977646C12.5965 0.977646 11.9771 1.20225 11.4809 1.6116Z" fill="white"/>
</g>
</svg>
