<svg width="24" height="21" viewBox="0 0 24 21" fill="none" xmlns="http://www.w3.org/2000/svg">
<g opacity="0.7" clip-path="url(#clip0)">
<path d="M22.8281 21.464H22.5306V15.4877C22.5306 15.2878 22.3733 15.1258 22.179 15.1258C21.9848 15.1258 21.8275 15.2878 21.8275 15.4877V21.464H14.3695V11.626H21.5402C21.6986 11.626 21.8275 11.7587 21.8275 11.9218V13.7827C21.8275 13.9826 21.9849 14.1446 22.1791 14.1446C22.3733 14.1446 22.5307 13.9826 22.5307 13.7827V11.9218C22.5307 11.3596 22.0863 10.9022 21.5402 10.9022H14.3695V4.32555C14.3695 3.79896 13.9715 3.3542 13.4624 3.30986V2.58388C13.4624 2.05521 13.0613 1.60872 12.5493 1.56742L3.44428 0.832804C2.86936 0.786046 2.37647 1.25541 2.37647 1.84927V2.42884C1.85508 2.47468 1.46939 2.92364 1.46939 3.44458V21.4639H1.17188C0.525703 21.4639 0 22.0051 0 22.6702C0 23.3354 0.525703 23.8766 1.17188 23.8766H22.8281C23.4743 23.8766 24 23.3354 24 22.6702C24 22.0051 23.4743 21.464 22.8281 21.464ZM3.07959 1.84932C3.07959 1.67599 3.22289 1.54088 3.38939 1.55444L12.4944 2.289C12.6429 2.30102 12.7592 2.43053 12.7592 2.58388V3.25282L3.07955 2.47189V1.84932H3.07959ZM2.17252 3.44463C2.17252 3.2699 2.31769 3.13586 2.48227 3.14975L13.4014 4.03067C13.55 4.04269 13.6663 4.1722 13.6663 4.32555V21.464H12.684V16.2825C12.684 15.9531 12.4237 15.6851 12.1037 15.6851H8.83744C8.51747 15.6851 8.25717 15.9531 8.25717 16.2825V18.6302C8.25717 18.83 8.41458 18.9921 8.60873 18.9921C8.80289 18.9921 8.9603 18.83 8.9603 18.6302V16.4089H11.9808V21.464H8.9603V20.3221C8.9603 20.1222 8.80289 19.9602 8.60873 19.9602C8.41458 19.9602 8.25717 20.1222 8.25717 20.3221V21.464H2.17252V3.44463ZM22.8281 23.1528H1.17188C0.913406 23.1528 0.703125 22.9364 0.703125 22.6703C0.703125 22.4042 0.913406 22.1878 1.17188 22.1878H22.8281C23.0866 22.1878 23.2969 22.4042 23.2969 22.6703C23.2969 22.9364 23.0866 23.1528 22.8281 23.1528Z" fill="white"/>
<path d="M3.5588 7.86287H4.98183C5.31638 7.86287 5.58854 7.58271 5.58854 7.23838V6.11131C5.58854 5.76698 5.31638 5.48682 4.98183 5.48682H3.5588C3.2243 5.48682 2.95215 5.76698 2.95215 6.11131V7.23838C2.95215 7.58271 3.2243 7.86287 3.5588 7.86287ZM3.65527 6.21057H4.88546V7.13907H3.65527V6.21057Z" fill="white"/>
<path d="M7.10568 7.86287H8.52872C8.86322 7.86287 9.13537 7.58271 9.13537 7.23838V6.11131C9.13537 5.76698 8.86322 5.48682 8.52872 5.48682H7.10568C6.77118 5.48682 6.49902 5.76698 6.49902 6.11131V7.23838C6.49898 7.58271 6.77113 7.86287 7.10568 7.86287ZM7.2021 6.21057H8.43225V7.13907H7.2021V6.21057Z" fill="white"/>
<path d="M10.6545 7.86287H12.0775C12.4121 7.86287 12.6842 7.58271 12.6842 7.23838V6.11131C12.6842 5.76698 12.412 5.48682 12.0775 5.48682H10.6545C10.32 5.48682 10.0479 5.76698 10.0479 6.11131V7.23838C10.0478 7.58271 10.32 7.86287 10.6545 7.86287ZM10.7509 6.21057H11.9811V7.13907H10.7509V6.21057Z" fill="white"/>
<path d="M3.5588 11.1168H4.98183C5.31638 11.1168 5.58854 10.8367 5.58854 10.4923V9.36522C5.58854 9.02088 5.31638 8.74072 4.98183 8.74072H3.5588C3.2243 8.74072 2.95215 9.02088 2.95215 9.36522V10.4923C2.95215 10.8367 3.2243 11.1168 3.5588 11.1168ZM3.65527 9.46453H4.88546V10.393H3.65527V9.46453Z" fill="white"/>
<path d="M7.10568 11.1168H8.52872C8.86322 11.1168 9.13537 10.8367 9.13537 10.4923V9.36522C9.13537 9.02088 8.86322 8.74072 8.52872 8.74072H7.10568C6.77118 8.74072 6.49902 9.02088 6.49902 9.36522V10.4923C6.49898 10.8367 6.77113 11.1168 7.10568 11.1168ZM7.2021 9.46453H8.43225V10.393H7.2021V9.46453Z" fill="white"/>
<path d="M10.6545 11.1168H12.0775C12.4121 11.1168 12.6842 10.8367 12.6842 10.4923V9.36522C12.6842 9.02088 12.412 8.74072 12.0775 8.74072H10.6545C10.32 8.74072 10.0479 9.02088 10.0479 9.36522V10.4923C10.0478 10.8367 10.32 11.1168 10.6545 11.1168ZM10.7509 9.46453H11.9811V10.393H10.7509V9.46453Z" fill="white"/>
<path d="M3.5588 14.3712H4.98183C5.31638 14.3712 5.58854 14.091 5.58854 13.7467V12.6196C5.58854 12.2753 5.31638 11.9951 4.98183 11.9951H3.5588C3.2243 11.9951 2.95215 12.2753 2.95215 12.6196V13.7467C2.95215 14.091 3.2243 14.3712 3.5588 14.3712ZM3.65527 12.7189H4.88546V13.6474H3.65527V12.7189Z" fill="white"/>
<path d="M6.77659 15.6851H3.62715C3.25496 15.6851 2.95215 15.9968 2.95215 16.3799V17.3663C2.95215 17.7494 3.25496 18.0612 3.62715 18.0612H6.77659C7.14877 18.0612 7.45159 17.7494 7.45159 17.3663V16.3799C7.45159 15.9968 7.14877 15.6851 6.77659 15.6851ZM6.74846 17.3374H3.65527V16.4089H6.74846V17.3374Z" fill="white"/>
<path d="M7.10568 14.3712H8.52872C8.86322 14.3712 9.13537 14.091 9.13537 13.7467V12.6196C9.13537 12.2753 8.86322 11.9951 8.52872 11.9951H7.10568C6.77118 11.9951 6.49902 12.2753 6.49902 12.6196V13.7467C6.49898 14.091 6.77113 14.3712 7.10568 14.3712ZM7.2021 12.7189H8.43225V13.6474H7.2021V12.7189Z" fill="white"/>
<path d="M10.6545 14.3712H12.0775C12.4121 14.3712 12.6842 14.091 12.6842 13.7467V12.6196C12.6842 12.2753 12.412 11.9951 12.0775 11.9951H10.6545C10.32 11.9951 10.0479 12.2753 10.0479 12.6196V13.7467C10.0478 14.091 10.32 14.3712 10.6545 14.3712ZM10.7509 12.7189H11.9811V13.6474H10.7509V12.7189Z" fill="white"/>
<path d="M17.8395 14.0564C17.8395 13.6893 17.5494 13.3906 17.1928 13.3906H15.7571C15.4005 13.3906 15.1104 13.6893 15.1104 14.0564V15.2286C15.1104 15.5957 15.4005 15.8944 15.7571 15.8944H17.1928C17.5494 15.8944 17.8395 15.5957 17.8395 15.2286V14.0564ZM17.1364 15.1706H15.8135V14.1144H17.1364V15.1706Z" fill="white"/>
<path d="M17.1928 16.7305H15.7571C15.4005 16.7305 15.1104 17.0291 15.1104 17.3962V18.5685C15.1104 18.9355 15.4005 19.2342 15.7571 19.2342H17.1928C17.5494 19.2342 17.8395 18.9356 17.8395 18.5685V17.3962C17.8395 17.0291 17.5494 16.7305 17.1928 16.7305ZM17.1364 18.5104H15.8135V17.4543H17.1364V18.5104Z" fill="white"/>
<path d="M21.11 14.0564C21.11 13.6893 20.8199 13.3906 20.4632 13.3906H19.0276C18.671 13.3906 18.3809 13.6893 18.3809 14.0564V15.2286C18.3809 15.5957 18.671 15.8944 19.0276 15.8944H20.4632C20.8198 15.8944 21.11 15.5957 21.11 15.2286V14.0564ZM20.4068 15.1706H19.084V14.1144H20.4068V15.1706Z" fill="white"/>
<path d="M20.4632 16.7305H19.0276C18.671 16.7305 18.3809 17.0291 18.3809 17.3962V18.5685C18.3809 18.9355 18.671 19.2342 19.0276 19.2342H20.4632C20.8198 19.2342 21.11 18.9356 21.11 18.5685V17.3962C21.11 17.0291 20.8199 16.7305 20.4632 16.7305ZM20.4068 18.5104H19.084V17.4543H20.4068V18.5104Z" fill="white"/>
</g>
<defs>
<clipPath id="clip0">
<rect width="24" height="21" fill="white"/>
</clipPath>
</defs>
</svg>
