<svg width="14" height="14" viewBox="0 0 14 14" fill="none" xmlns="http://www.w3.org/2000/svg">
<path d="M14 8.31251C14 7.96194 13.8606 7.63526 13.6202 7.39434C13.8927 7.09626 14.0315 6.69666 13.9936 6.28076C13.9253 5.53934 13.2574 4.95834 12.4722 4.95834H8.869C9.0475 4.41641 9.33332 3.42301 9.33332 2.62501C9.33332 1.35976 8.25825 0.291687 7.58332 0.291687C6.97782 0.291687 6.5444 0.632937 6.52632 0.646937C6.4569 0.702363 6.41665 0.786363 6.41665 0.875011V2.85309L4.73607 6.49251L4.66665 6.52809V6.41666C4.66665 6.25566 4.53597 6.12498 4.37497 6.12498H1.45832C0.653926 6.12501 0 6.77894 0 7.58334V12.25C0 13.0544 0.653926 13.7083 1.45832 13.7083H3.20832C3.8389 13.7083 4.3779 13.3058 4.5809 12.7441C5.06625 12.9938 5.71957 13.125 6.125 13.125H11.4794C12.1147 13.125 12.6706 12.6968 12.8013 12.1065C12.8683 11.802 12.8293 11.4958 12.6962 11.2298C13.1267 11.0133 13.4167 10.5683 13.4167 10.0625C13.4167 9.85601 13.3694 9.65826 13.2802 9.47976C13.7107 9.26276 14 8.81826 14 8.31251ZM12.7697 9.03234C12.6572 9.04576 12.5621 9.12216 12.5259 9.23009C12.4904 9.33801 12.5201 9.45641 12.6029 9.53459C12.7511 9.67401 12.8334 9.86184 12.8334 10.0625C12.8334 10.4306 12.5551 10.7398 12.187 10.7823C12.0745 10.7958 11.9794 10.8722 11.9432 10.9801C11.9076 11.088 11.9374 11.2064 12.0202 11.2846C12.2121 11.4654 12.2891 11.7192 12.2314 11.9805C12.1596 12.306 11.8435 12.5417 11.4795 12.5417H6.125C5.65132 12.5417 4.85682 12.3194 4.5815 12.0435C4.49807 11.9607 4.37207 11.9362 4.26357 11.9805C4.1545 12.0254 4.08332 12.1322 4.08332 12.25C4.08332 12.7324 3.69075 13.125 3.20832 13.125H1.45832C0.975898 13.125 0.583324 12.7324 0.583324 12.25V7.58334C0.583324 7.10091 0.975898 6.70834 1.45832 6.70834H4.08332V7.00001C4.08332 7.10094 4.13582 7.19484 4.22215 7.24851C4.30732 7.29984 4.41465 7.30509 4.50565 7.26076L5.08897 6.96909C5.1479 6.93991 5.19515 6.89091 5.22315 6.83084L6.97315 3.03916C6.99065 3.00066 6.99997 2.95866 6.99997 2.91666V1.03309C7.12132 0.966011 7.33193 0.875011 7.58332 0.875011C7.903 0.875011 8.75 1.66951 8.75 2.62501C8.75 3.65169 8.19118 5.13159 8.18593 5.14619C8.1521 5.23544 8.16375 5.33636 8.218 5.41569C8.27282 5.49444 8.36268 5.54169 8.45832 5.54169H12.4722C12.9587 5.54169 13.3717 5.88994 13.4126 6.33444C13.4435 6.66694 13.2836 6.98311 12.9972 7.15986C12.908 7.21469 12.8549 7.31386 12.859 7.41944C12.8631 7.52501 12.9237 7.61951 13.0171 7.66794C13.2638 7.79336 13.4166 8.04069 13.4166 8.31251C13.4167 8.68059 13.1384 8.98976 12.7697 9.03234Z" fill="white"/>
</svg>
